<?xml version="1.0" encoding="utf-8"?>
<!-- Generator: Adobe Illustrator 16.0.4, SVG Export Plug-In . SVG Version: 6.00 Build 0)  -->
<!DOCTYPE svg PUBLIC "-//W3C//DTD SVG 1.1//EN" "http://www.w3.org/Graphics/SVG/1.1/DTD/svg11.dtd">
<svg version="1.1" id="Layer_1" xmlns="http://www.w3.org/2000/svg" xmlns:xlink="http://www.w3.org/1999/xlink" x="0px" y="0px"
	 width="120px" height="60px" viewBox="0 0 120 60" enable-background="new 0 0 120 60" xml:space="preserve">
<g>
	<path fill="#FFFFFF" d="M3.973,16.925v22.592h7.741v3.735H0V16.925H3.973z"/>
	<path fill="#FFFFFF" d="M32.413,36.857H21.143l-2.933,6.395h-4.28l13.027-27.98l12.566,27.98h-4.348L32.413,36.857z M30.792,33.123
		l-3.904-8.951l-4.092,8.951H30.792z"/>
	<path fill="#FFFFFF" d="M51.73,32.031l8.151,11.221h-4.86l-7.519-10.776h-0.717v10.776h-3.974V16.925h4.655
		c3.479,0,5.99,0.654,7.538,1.961c1.704,1.456,2.557,3.376,2.557,5.763c0,1.865-0.534,3.468-1.603,4.809S53.481,31.656,51.73,32.031
		z M46.786,29.014h1.262c3.763,0,5.645-1.438,5.645-4.314c0-2.693-1.831-4.04-5.49-4.04h-1.416V29.014z"/>
	<path fill="#FFFFFF" d="M63.836,43.252V16.925h3.957c1.761,0,3.164,0.137,4.21,0.41c1.058,0.273,1.949,0.733,2.677,1.381
		c0.739,0.67,1.325,1.506,1.757,2.506c0.443,1.012,0.665,2.035,0.665,3.069c0,1.887-0.722,3.484-2.165,4.792
		c1.396,0.477,2.5,1.312,3.307,2.505c0.819,1.183,1.229,2.559,1.229,4.127c0,2.057-0.729,3.796-2.183,5.218
		c-0.875,0.874-1.858,1.482-2.949,1.824c-1.195,0.33-2.688,0.495-4.485,0.495H63.836z M67.808,28.23h1.246
		c1.479,0,2.561-0.327,3.249-0.98c0.686-0.654,1.031-1.618,1.031-2.891c0-1.239-0.353-2.18-1.058-2.822
		c-0.706-0.643-1.728-0.963-3.068-0.963h-1.4V28.23z M67.808,39.517h2.457c1.796,0,3.114-0.352,3.955-1.057
		c0.888-0.762,1.331-1.728,1.331-2.898c0-1.137-0.427-2.092-1.279-2.865c-0.831-0.761-2.314-1.142-4.45-1.142h-2.014V39.517z"/>
</g>
</svg>
