<?xml version="1.0" encoding="utf-8"?>
<!-- Generator: Adobe Illustrator 16.0.4, SVG Export Plug-In . SVG Version: 6.00 Build 0)  -->
<!DOCTYPE svg PUBLIC "-//W3C//DTD SVG 1.1//EN" "http://www.w3.org/Graphics/SVG/1.1/DTD/svg11.dtd">
<svg version="1.1" id="Layer_1" xmlns="http://www.w3.org/2000/svg" xmlns:xlink="http://www.w3.org/1999/xlink" x="0px" y="0px"
	 width="90px" height="157.875px" viewBox="173.5 0 90 157.875" enable-background="new 173.5 0 90 157.875" xml:space="preserve">
<g>
	<defs>
		<rect id="SVGID_11_" x="173.5" width="90" height="156.77"/>
	</defs>
	<clipPath id="SVGID_2_">
		<use xlink:href="#SVGID_11_"  overflow="visible"/>
	</clipPath>
	<path clip-path="url(#SVGID_2_)" fill="#9B3535" d="M173.708,50.952c0.04-0.045,0.147-0.283-0.062-0.232
		C173.657,50.802,173.624,50.934,173.708,50.952 M173.766,131.108c0.034-0.144,0.095-0.335-0.119-0.409
		C173.669,130.947,173.478,131.047,173.766,131.108 M173.88,42.49c-0.08-0.136,0.152-0.222,0-0.237
		C173.867,42.292,173.735,42.482,173.88,42.49 M173.941,65.581c-0.151-0.057-0.261,0.203-0.114,0.237
		C173.782,65.659,173.941,65.699,173.941,65.581 M173.646,95.73c0.267-0.038,0.487,0.008,0.648-0.237
		c-0.2-0.215-0.2-0.425-0.648-0.289C173.646,95.388,173.505,95.584,173.646,95.73 M173.88,65.411
		c-0.09,0.141,0.203,0.17,0.181,0.058C173.979,65.467,173.979,65.39,173.88,65.411 M174.173,69.462
		C173.937,69.258,174.034,69.65,174.173,69.462 M174.003,41.079c0.006-0.051,0.045-0.068,0.114-0.059
		c-0.005-0.139-0.153-0.428-0.237-0.292C174.048,40.71,173.837,41.09,174.003,41.079 M173.88,109.775
		c-0.013-0.158,0.334,0.058,0.237-0.179C174.025,109.617,173.691,109.677,173.88,109.775 M174.173,125.23
		c-0.13,0.019-0.214-0.011-0.231-0.112c0.084-0.012,0.218,0.018,0.231-0.062c-0.214,0.062-0.164-0.147-0.346-0.118
		c0.015,0.089-0.146,0.793,0.233,0.707C174.134,125.47,174.034,125.399,174.173,125.23 M174.173,67.349h-0.231
		c0.022,0.095-0.086,0.15,0,0.175C173.959,67.405,174.159,67.465,174.173,67.349 M174.295,14.161c-0.194-0.11,0,0.054-0.178,0.122
		C174.235,14.401,174.235,14.257,174.295,14.161 M174.235,42.314c0.014-0.155-0.021-0.255-0.175-0.237
		C174.043,42.232,174.083,42.331,174.235,42.314 M174.295,123.062c-0.183-0.018,0.189-0.386-0.122-0.358
		C174.032,122.788,174.165,123.253,174.295,123.062 M174.235,47.542c0.167,0.094,0.158-0.257,0.06-0.235
		C174.273,47.388,174.214,47.421,174.235,47.542 M174.348,108.246c0.018-0.132-0.007-0.216-0.112-0.232
		C174.241,108.124,174.273,108.211,174.348,108.246 M174.295,69.048C174.246,69.405,174.563,69.091,174.295,69.048 M174.295,113.186
		c0.161,0.097,0.161-0.256,0.053-0.235C174.332,113.029,174.269,113.063,174.295,113.186 M174.412,50.48h-0.116v0.12h0.116V50.48z
		 M174.412,69.933c0.018-0.079-0.034-0.23-0.064-0.12C174.332,69.896,174.394,70.046,174.412,69.933 M174.412,81.982
		c0.075-0.08,0.081-0.221-0.064-0.238C174.273,81.824,174.315,81.92,174.412,81.982 M174.412,71.288
		c0.075-0.08,0.081-0.222-0.064-0.237c0,0.079-0.099,0.053-0.112,0.118C174.321,71.185,174.332,71.265,174.412,71.288
		 M174.412,112.184c0.036-0.033,0.136-0.28,0-0.289C174.448,111.995,174.239,112.139,174.412,112.184 M174.529,113.364
		C174.246,113.199,174.384,113.558,174.529,113.364 M174.529,69.048c0-0.095-0.045-0.147-0.117-0.172
		C174.412,68.975,174.456,69.025,174.529,69.048 M174.467,66.995c0.008-0.146,0.114-0.179-0.055-0.234
		C174.332,66.837,174.378,66.934,174.467,66.995 M174.235,107.955c0.13,0.024,0.317,0.137,0.351-0.062
		C174.456,107.874,174.269,107.761,174.235,107.955 M174.529,150.503h-0.117v0.116h0.117V150.503z M174.467,70.112
		c-0.064,0.115,0.097,0.276,0.119,0.115C174.508,70.228,174.529,70.126,174.467,70.112 M174.586,64.939h-0.119v0.115h0.119V64.939z
		 M174.703,120.998c-0.103,0.039-0.343-0.068-0.355,0.063C174.484,121.083,174.669,121.195,174.703,120.998 M174.703,94.382h-0.236
		c-0.037,0.156,0.124,0.11,0.177,0.172C174.644,94.474,174.673,94.428,174.703,94.382 M174.703,14.634
		c-0.177-0.006,0.186-0.227,0-0.236C174.631,14.458,174.526,14.821,174.703,14.634 M174.881,43.432
		c-0.092,0.009-0.218-0.023-0.237,0.056c0.087,0.018,0.102,0.097,0.182,0.114C174.825,43.527,174.852,43.476,174.881,43.432
		 M174.825,71.108C174.779,71.463,175.092,71.146,174.825,71.108 M174.881,126.054c0.151-0.116-0.161-0.468-0.295-0.29
		C174.816,125.73,174.773,125.974,174.881,126.054 M175.114,142.218C174.521,142.285,174.943,142.448,175.114,142.218
		 M174.94,120.414c-0.108,0.013-0.133-0.067-0.237-0.06c0.047,0.161-0.117,0.116-0.117,0.235c0.109-0.005,0.142,0.06,0.117,0.175
		c-0.127,0.051-0.252-0.203-0.291-0.061c0.081,0.022,0.062,0.135,0.117,0.18h0.296C174.784,120.652,174.87,120.543,174.94,120.414
		 M174.94,113.422c-0.115,0.014-0.115-0.085-0.177-0.115C174.599,113.396,174.876,113.583,174.94,113.422 M174.881,111.249
		C175.082,111.425,175.058,111.028,174.881,111.249 M175,14.104c0,0.03,0.045,0.066,0.058,0c-0.08-0.014-0.097-0.1-0.177-0.116
		c0.022,0.1-0.092,0.153,0,0.172C174.898,14.113,174.927,14.095,175,14.104 M175.058,68.057c0.176,0.091,0.156-0.307,0.057-0.297
		C175.166,67.927,175.032,67.913,175.058,68.057 M175.174,69.995c-0.156-0.137,0.095-0.612-0.06-0.533
		c0.018,0.262-0.161,0.018-0.233,0C174.898,69.724,174.943,69.949,175.174,69.995 M175.174,63.412
		c-0.035-0.124,0.077-0.388-0.06-0.412v0.115c-0.188-0.009-0.354,0-0.411,0.119C174.916,63.237,174.99,63.38,175.174,63.412
		 M174.825,67.051c0.118,0.037,0.168,0.15,0.349,0.122c-0.04-0.375,0.077-0.908-0.06-1.178c0.018,0.129-0.05,0.187-0.174,0.178
		c-0.213-0.099-0.237-0.394-0.593-0.354c0.104,0.237,0.064,0.255,0.182,0.471c-0.188-0.015-0.458-0.234-0.649-0.057
		c0.089,0.011,0.057,0.141,0.062,0.232c0.171,0.016,0.181-0.128,0.354-0.117C174.484,66.572,174.936,66.531,174.825,67.051
		 M175.174,67.58v-0.288c-0.139-0.142-0.285,0.005-0.471,0c-0.003,0.136,0.104,0.168,0.061,0.352
		C174.918,67.644,175.097,67.665,175.174,67.58 M175.174,126.467v-0.235c-0.221-0.024-0.374,0.017-0.471,0.116
		c0.037,0.142,0.081,0.275,0.237,0.298C174.898,126.438,175.092,126.383,175.174,126.467 M174.644,130.873
		c0.164-0.05,0.555,0.121,0.53-0.114C175.064,130.633,174.7,130.746,174.644,130.873 M174.94,143.803
		c0.104-0.013,0.293,0.057,0.233-0.116C175.064,143.691,174.978,143.724,174.94,143.803 M175.29,13.753
		c-0.076,0.007-0.176-0.239-0.232-0.057C175.134,13.682,175.278,13.892,175.29,13.753 M175.467,13.282
		c0.015-0.167-0.163-0.147-0.233-0.232C175.203,13.231,175.38,13.218,175.467,13.282 M175.531,10.344
		c-0.177,0.068,0.088,0.068,0.052-0.057c-0.047-0.032-0.253-0.177-0.116-0.057C175.467,10.288,175.514,10.298,175.531,10.344
		 M175.702,13.458c0.008-0.094,0.151-0.048,0.124-0.176C175.702,13.231,175.602,13.478,175.702,13.458 M175.879,0.646
		c0.029-0.198-0.102-0.249-0.177-0.351c-0.015,0.108-0.096-0.034-0.119,0.056C175.664,0.468,175.702,0.629,175.879,0.646
		 M175.879,11.987c0.078-0.164-0.107-0.352-0.177-0.175C175.836,11.794,175.771,11.981,175.879,11.987 M175.763,5.759
		c-0.028-0.116,0.326-0.136,0.116-0.232c-0.035,0.177-0.125-0.056-0.234,0C175.652,5.639,175.683,5.719,175.763,5.759 M176,12.576
		c0-0.096-0.048-0.147-0.121-0.175C175.879,12.503,175.925,12.554,176,12.576 M175.936,11.284v-0.118
		c-0.057,0-0.067-0.043-0.109-0.057c0.02,0.102-0.092,0.154,0,0.175c0-0.033,0.007-0.069,0.053-0.062
		C175.885,11.265,175.891,11.295,175.936,11.284 M175.763,13.458c-0.019,0.162,0.271,0.309,0.291,0.238
		C175.919,13.656,175.908,13.5,175.763,13.458 M176.054,0.53c0.058-0.145-0.265-0.195-0.228-0.123
		C175.913,0.443,175.97,0.505,176.054,0.53 M176.173,6.116c0.04-0.242-0.221-0.17-0.41-0.182c-0.11,0.197,0.213,0.248,0.237,0.119
		c-0.048-0.012-0.115,0-0.121-0.056C176.066,5.946,176.062,6.09,176.173,6.116 M176.411,11.049c0.038-0.097-0.287-0.251-0.061-0.354
		c-0.083,0.035-0.143-0.229-0.178-0.056c0.062,0,0.075,0.1,0,0.119c-0.084-0.147-0.26-0.204-0.41-0.294
		c-0.019,0.083-0.07,0.094,0,0.176c-0.339,0.079,0.073,0.045,0.081-0.074c0.024,0.048,0.081,0.068,0.092,0.13
		c-0.1-0.102-0.182,0.018-0.233,0.12c0.087-0.029,0.144,0.226,0.177,0.062c-0.046-0.014-0.062-0.051-0.053-0.119H176
		c0.033,0.221,0.005,0.213,0.116,0.409c-0.062,0-0.073-0.043-0.116-0.057c0.062,0.191,0.146,0.126,0,0.294
		c0.176-0.085,0.043,0.448,0.234,0.292c-0.078-0.039,0.053-0.179-0.118-0.235c0.158-0.041,0.118,0.118,0.234,0.118
		c0.045-0.198-0.239-0.074-0.178-0.294c0.087-0.033,0.149,0.229,0.178,0.057c-0.234-0.143,0.194-0.041,0-0.12
		c-0.026-0.096-0.076,0.017-0.178,0c0.151-0.141-0.033-0.204-0.119-0.29c0.214-0.005-0.118-0.194,0.062-0.175
		C176.26,10.785,176.196,11.188,176.411,11.049 M187.047,155.318c-0.124-0.005-0.188,0.053-0.177,0.177
		C187.033,155.537,186.987,155.373,187.047,155.318 M187.166,155.438c0.116,0.161,0.354-0.074,0.116-0.119
		C187.282,155.4,187.174,155.373,187.166,155.438 M187.52,155.969c0-0.109-0.064-0.14-0.18-0.122v0.122H187.52z M188.396,155.787
		c0.116-0.108-0.06-0.232-0.053-0.406c-0.228-0.067-0.523-0.077-0.772-0.116c0-0.04-0.009-0.072-0.052-0.062
		c-0.141,0.256,0.312,0.525,0.584,0.354C188.116,155.721,188.205,155.805,188.396,155.787 M188.808,155.787
		c-0.161-0.184,0.198-0.188,0-0.35C188.728,155.518,188.597,155.75,188.808,155.787 M188.396,155.969
		c0.139,0.134,0.778,0.057,0.53-0.182v0.122C188.659,156.038,188.59,155.723,188.396,155.969 M189.396,155.616
		c0.013,0.072,0.285,0,0.177-0.06C189.526,155.529,189.388,155.574,189.396,155.616 M189.753,155.438
		c-0.116,0.013-0.129-0.064-0.237-0.057C189.47,155.579,189.741,155.606,189.753,155.438 M189.983,155.673
		c0.017-0.168-0.224-0.228-0.23-0.057C189.833,155.639,189.861,155.698,189.983,155.673 M190.52,155.847
		c-0.103,0.166,0.143,0.266,0.169,0.122C190.598,155.961,190.644,155.819,190.52,155.847 M190.921,156.082
		c0.029-0.089,0.187-0.044,0.126-0.235C190.896,155.795,190.848,156.112,190.921,156.082 M192.219,155.026
		C191.839,154.959,192.089,155.207,192.219,155.026 M196.92,156.142c0.034-0.287-0.388-0.158-0.47-0.06
		C196.532,156.174,196.75,156.137,196.92,156.142 M197.451,156.142c0.101-0.012,0.291,0.062,0.231-0.116h-0.231V156.142z
		 M200.442,156.318c0.112-0.027,0.357,0.082,0.298-0.114h-0.298V156.318z M201.208,155.787c-0.091,0.182,0.306,0.156,0.294,0.06
		C201.402,155.797,201.332,155.663,201.208,155.787 M206.441,155.673c0.009-0.19-0.28-0.228-0.242,0H206.441z M211.376,156.675
		c-0.006-0.092,0.008-0.203-0.114-0.178v0.118C211.312,156.615,211.33,156.658,211.376,156.675 M216.195,156.556
		c0.15-0.049,0.597-0.108,0.408-0.295c-0.139,0.312-0.516-0.198-0.586,0.119C216.17,156.341,216.229,156.402,216.195,156.556
		 M216.958,156.082c0.138,0.021,0.256,0.13,0.3-0.057C217.122,156.008,216.998,155.901,216.958,156.082 M232.588,156.025
		c-0.098-0.018,0.075-0.203-0.176-0.179C232.397,155.948,232.526,156.194,232.588,156.025 M232.884,155.318
		c0.074-0.248-0.459-0.232-0.472-0.054C232.554,155.304,232.77,155.426,232.884,155.318 M232.884,156.142
		c0.125-0.121,0.028-0.282-0.117-0.295c-0.019,0.085-0.087,0.114-0.062,0.235C232.788,156.08,232.839,156.112,232.884,156.142
		 M233.116,155.318c0.042-0.158-0.121-0.108-0.176-0.173C232.936,155.274,232.99,155.331,233.116,155.318 M233.235,156.082
		c0.018-0.15-0.079-0.19-0.234-0.173C232.982,156.062,233.084,156.103,233.235,156.082 M233.529,155.318
		c0.086-0.005,0.222,0.022,0.233-0.054C233.685,155.185,233.553,155.185,233.529,155.318 M234.176,155.265
		c0.097-0.006,0.204,0.007,0.176-0.119h-0.113C234.238,155.202,234.19,155.217,234.176,155.265 M246.868,156.497
		c-0.088,0.007-0.212-0.021-0.234,0.059C246.713,156.633,246.854,156.633,246.868,156.497 M258.269,146.685
		c0.034-0.229-0.272-0.578-0.466-0.765C257.936,146.195,257.856,146.689,258.269,146.685 M259.504,119.003
		c0.051-0.119-0.147-0.266-0.176-0.119C259.412,118.901,259.43,118.983,259.504,119.003 M259.854,154.677
		c0.092-0.149-0.199-0.179-0.175-0.06c0.04,0.002,0.071,0.012,0.058,0.06H259.854z M260.149,116.481
		c-0.024-0.119-0.021-0.256-0.173-0.245C259.963,116.391,260.064,116.424,260.149,116.481 M260.034,120.062
		c-0.065,0.149,0.197,0.258,0.232,0.117C260.149,120.179,260.195,120.018,260.034,120.062 M260.267,118.589
		c0.098-0.181-0.212-0.392-0.349-0.528C259.977,118.299,260.097,118.47,260.267,118.589 M260.267,118.941
		c0.11,0.042-0.225-0.42-0.349-0.523C259.96,118.664,260.16,118.76,260.267,118.941 M260.383,117.297
		c-0.133,0.031-0.198-0.295-0.286-0.114c0.167,0.216-0.137,0.589,0.17,0.704C260.198,117.574,260.314,117.567,260.383,117.297
		 M260.383,81.744c0.006-0.099-0.041-0.149-0.116-0.176C260.267,81.67,260.314,81.722,260.383,81.744 M260.212,38.137
		c-0.115,0.114,0.257,0.133,0.171,0C260.347,38.072,260.212,38.137,260.212,38.137 M260.678,120.062
		c-0.069-0.05-0.156-0.078-0.295-0.062C260.304,120.285,260.652,120.163,260.678,120.062 M260.627,119.768
		c0-0.103-0.052-0.152-0.124-0.175C260.503,119.688,260.548,119.742,260.627,119.768 M260.562,36.786
		c0.047-0.128-0.212-0.241-0.233-0.117C260.42,36.701,260.474,36.761,260.562,36.786 M260.445,114.301
		c0.094-0.002,0.254,0.1,0.116,0C260.621,114.157,260.225,114.284,260.445,114.301 M260.212,37.729
		c0.194,0.035,0.233,0.26,0.415,0.176C260.562,37.803,260.276,37.633,260.212,37.729 M260.562,112.536
		c0.047-0.04,0.15-0.283-0.059-0.232C260.518,112.392,260.484,112.522,260.562,112.536 M260.742,115.715
		c-0.141,0.008-0.289,0.008-0.359-0.061c0.023,0.14,0.064,0.251,0.179,0.294C260.511,115.758,260.718,115.824,260.742,115.715
		 M260.742,116.535c0.139-0.084,0.201-0.587-0.064-0.587C260.474,116.102,260.664,116.34,260.742,116.535 M260.797,154.322h-0.119
		v0.113h0.119V154.322z M260.854,114.242c0.005-0.103-0.043-0.151-0.112-0.173c0,0.059-0.048,0.065-0.064,0.113
		C260.754,114.192,260.765,114.264,260.854,114.242 M260.627,37.553c0.062,0.018,0.215,0.239,0.288,0.06
		C260.854,37.594,260.694,37.373,260.627,37.553 M260.797,40.671c0.183,0.025,0.102-0.329,0-0.125
		c0.036,0.002,0.068,0.012,0.058,0.062C260.795,40.605,260.706,40.636,260.797,40.671 M260.742,113.659
		c-0.039,0.194,0.219,0.391,0.349,0.228C261.005,113.78,260.979,113.606,260.742,113.659 M260.678,37.787
		c0.134,0.056,0.327,0.375,0.413,0.119C260.966,37.894,260.563,37.661,260.678,37.787 M261.035,41.136
		c0.016-0.133-0.012-0.218-0.12-0.232C260.79,41.025,260.915,41.102,261.035,41.136 M260.678,38.783
		c0.155-0.005,0.322,0.262,0.413,0.12C260.952,38.903,260.812,38.602,260.678,38.783 M261.207,114.36
		c-0.002-0.149-0.008-0.301-0.172-0.291C260.961,114.236,261.005,114.332,261.207,114.36 M260.854,40.844
		c0.187-0.016,0.493-0.212,0.353-0.354c0.025,0.255-0.156,0.08-0.172,0.182C261.225,40.747,260.79,40.692,260.854,40.844
		 M261.385,39.197C261.267,38.894,261.06,39.092,261.385,39.197 M261.267,40.257c-0.116-0.032-0.301,0.159-0.176,0.175
		C261.076,40.296,261.267,40.365,261.267,40.257 M261.267,36.786c0.032-0.182-0.145-0.162-0.231-0.23
		C261.023,36.72,261.199,36.701,261.267,36.786 M261.329,111.658h-0.062c0.005,0.011,0.024,0.021,0.045,0.037
		c-0.036,0.071-0.079,0.158-0.045,0.138c0.121-0.068,0.086-0.107,0.045-0.138C261.315,111.68,261.322,111.669,261.329,111.658
		 M261.091,114.951c0.211-0.074,0.188,0.389,0.358,0.168c-0.225-0.042-0.013-0.198-0.12-0.287
		C261.193,114.814,261.104,114.848,261.091,114.951 M261.267,106.721c0.005-0.097,0.147-0.045,0.118-0.176
		C261.267,106.494,261.122,106.698,261.267,106.721 M261.505,40.373C261.302,40.195,261.322,40.592,261.505,40.373 M261.562,104.899
		c0.016-0.076-0.034-0.229-0.058-0.115C261.482,104.862,261.538,105.007,261.562,104.899 M261.385,109.312
		c0.092-0.012,0.206,0.003,0.178-0.12h-0.113C261.449,109.249,261.397,109.26,261.385,109.312 M261.562,38.783
		c0.048-0.156-0.113-0.064-0.178-0.113c-0.157-0.12-0.385-0.48-0.47-0.237c0.227,0.09,0.387,0.244,0.534,0.413
		C261.455,38.801,261.5,38.778,261.562,38.783 M261.505,42.314c0.116,0.045,0.262-0.154,0.116-0.178
		C261.618,42.232,261.472,42.184,261.505,42.314 M261.681,105.662c0-0.073,0.103-0.053,0.119-0.117
		c-0.087-0.014-0.103-0.094-0.179-0.116C261.697,105.575,261.591,105.609,261.681,105.662 M261.681,115.417
		c0.057-0.197-0.086-0.192-0.231-0.174C261.394,115.432,261.635,115.324,261.681,115.417 M261.681,116.236
		c0.252,0.063,0.17-0.339,0-0.351V116.236z M261.621,109.312c0.04,0.011,0.225,0.142,0.232,0c-0.049-0.017-0.116-0.006-0.116-0.062
		c0.034,0,0.065-0.049,0-0.058C261.737,109.265,261.635,109.246,261.621,109.312 M261.8,105.015c-0.317,0.193,0.197-0.022,0-0.058
		V105.015z M261.854,105.369c0.016-0.146-0.09-0.184-0.173-0.235C261.67,105.282,261.771,105.318,261.854,105.369 M261.562,36.083
		c0.099,0.025,0.265,0.281,0.355,0.123C261.817,36.179,261.646,35.921,261.562,36.083 M261.267,116.419
		c0.344-0.083,0.354,0.151,0.651,0.116c-0.118-0.199-0.348-0.282-0.589-0.355C261.34,116.293,261.267,116.31,261.267,116.419
		 M261.918,111.187c-0.118,0.018-0.118-0.077-0.181-0.119c0,0.216,0.034,0.464-0.116,0.531c-0.003-0.037-0.011-0.072-0.059-0.06
		C261.8,111.861,261.822,111.314,261.918,111.187 M261.854,62.004c0.179,0.079,0.179-0.263,0-0.182V62.004z M261.621,35.908
		c0.108,0.014,0.312,0.234,0.348,0.116C261.873,36,261.708,35.749,261.621,35.908 M261.854,102.726
		c0.106-0.008,0.199,0.3,0.298,0.119C262.061,102.827,261.9,102.589,261.854,102.726 M262.032,112.482
		c-0.028-0.088,0.232-0.146,0.063-0.179C262.101,112.366,261.837,112.426,262.032,112.482 M262.151,117.242
		c-0.362,0.035-0.056-0.28-0.119-0.469c-0.163,0.008-0.404-0.052-0.411,0.114c0.196,0.083,0.206,0.341,0.348,0.466
		C261.969,117.26,262.141,117.328,262.151,117.242 M262.265,1.823h-0.112v0.235h0.112V1.823z M262.032,113.887
		c0.068,0.077,0.243,0.043,0.232-0.116C262.135,113.761,262.049,113.788,262.032,113.887 M262.265,113.659
		c-0.025-0.114,0.184-0.256-0.051-0.237C262.217,113.505,262.185,113.636,262.265,113.659 M262.383,116.481
		c-0.061-0.194-0.006-0.137,0-0.355c-0.248-0.042-0.259-0.322-0.465-0.411c-0.118,0.204,0.166,0.432,0.296,0.585
		c-0.108,0.008-0.188-0.013-0.245-0.063c-0.009,0.154,0.137,0.147,0.183,0.245C262.165,116.328,262.347,116.461,262.383,116.481
		 M262.326,111.422c0.035-0.037,0.138-0.275,0-0.297C262.361,111.236,262.157,111.375,262.326,111.422 M262.265,47.719
		c0.142-0.027,0.131,0.11,0.294,0.057c-0.076-0.194-0.342-0.202-0.526-0.29c0.068,0.187,0.099,0.41,0.351,0.41
		C262.401,47.784,262.305,47.776,262.265,47.719 M262.559,116.828c-0.182,0.095-0.236-0.216-0.294-0.055
		c0.226,0.041-0.332,0.072-0.051,0.171c0.009-0.141,0.153,0.068,0.169,0.119c-0.147,0.114-0.242-0.09-0.351,0.059
		c0.138,0.066,0.16-0.014,0.294,0.12c-0.051-0.19,0.194-0.082,0.176-0.238c-0.045-0.012-0.064-0.048-0.056-0.116
		C262.49,116.878,262.557,116.883,262.559,116.828 M262.559,112.831c-0.191-0.069-0.044,0.193-0.232,0.119
		c-0.017-0.046-0.004-0.119-0.062-0.119c0.029,0.262,0.021,0.195,0.062,0.414C262.536,113.235,262.49,112.984,262.559,112.831
		 M262.559,112.418C262.286,112.524,262.618,112.697,262.559,112.418 M262.68,115.063c-0.007-0.249-0.233-0.277-0.415-0.348
		c-0.025,0.205-0.066,0.339-0.232,0.348c0.133,0.138-0.009,0.562,0.294,0.533C262.383,115.311,262.49,115.075,262.68,115.063
		 M262.559,35.145c0.188-0.028,0.16,0.159,0.295,0.171C262.838,35.213,262.544,34.912,262.559,35.145 M262.559,116.3
		c0.25,0.128,0.357-0.369,0.121-0.352c0.09,0.205-0.197,0.029-0.178,0.178C262.574,116.134,262.565,116.22,262.559,116.3
		 M262.797,8.992c0.125-0.148,0.154-0.389-0.062-0.471C262.671,8.684,262.695,8.859,262.797,8.992 M262.502,117.592
		c0.171-0.013,0.188,0.129,0.352,0.119c-0.039-0.24-0.25-0.3-0.352-0.469C262.565,117.426,262.51,117.369,262.502,117.592
		 M262.854,110.66C263.023,110.423,262.7,110.381,262.854,110.66 M262.854,117.416c-0.084-0.188,0.27-0.353,0-0.353
		C262.871,117.167,262.689,117.354,262.854,117.416 M262.916,35.615c0.081-0.195-0.388-0.283-0.236-0.179
		C262.832,35.42,262.724,35.666,262.916,35.615 M262.797,31.206c0.104-0.017,0.295,0.165,0.353,0
		C263.069,31.121,262.838,30.997,262.797,31.206 M262.735,113.887c0.103-0.322,0.373-0.555,0.356-0.877
		c-0.24,0.09-0.283-0.087-0.533,0c-0.015,0.193,0.228,0.121,0.238,0.297c-0.092,0.007-0.217-0.024-0.238,0.058
		c0.086,0.124,0.016,0.235,0,0.406C262.673,113.761,262.68,113.852,262.735,113.887 M262.97,112.598
		C263.266,112.52,263.062,112.317,262.97,112.598 M263.149,115.365c0.011-0.074,0.103-0.137,0-0.182
		C263.142,115.251,263.044,115.311,263.149,115.365 M263.149,140.869c0.165-0.528-0.117-1.042,0.116-1.416
		c-0.756-0.359-0.388,0.905-0.469,1.416H263.149z M263.266,116.481c-0.183-0.119,0.023-0.256-0.233-0.302
		c0.112,0.172,0.06,0.289,0.117,0.414C263.149,116.516,263.252,116.543,263.266,116.481 M263.092,10.814
		c0.031,0.276-0.074,0.601,0.114,0.589C263.174,11.199,263.298,10.842,263.092,10.814 M263.206,9.052
		C263.238,8.688,262.962,8.785,263.206,9.052 M263.381,10.403c-0.221-0.428,0.04-1.051-0.289-1.295
		C263.108,9.691,262.922,10.208,263.381,10.403 M262.812,116.645c0.008-0.005,0.018-0.022,0.042-0.051
		c0.075,0.028,0.026-0.294-0.118-0.234v0.176C262.905,116.481,262.814,116.627,262.812,116.645 M262.151,102.431
		c0,0.079-0.103,0.053-0.119,0.119c0.092-0.031,0.141,0.229,0.182,0.06C262.198,102.575,262.17,102.483,262.151,102.431
		 M262.259,113.012c-0.227,0.171-0.481-0.011-0.635,0.174c0.231,0.134-0.295,0.289-0.062,0.411
		C261.708,113.319,262.049,113.232,262.259,113.012 M262.151,117.416c-0.188,0.176,0.104,0.359,0.231,0.414
		c-0.248,0.216,0.114,0.287,0,0.469c0.1,0.171,0.191,0.02,0.297,0.119c-0.105,0.182-0.183,0.029-0.415,0.057
		c-0.08-0.34-0.216-0.469-0.232-0.761c-0.082,0.152-0.205,0.26-0.352,0.347c0.352,0.325,0.323,0.712,0.584,1.062
		c-0.1,0.05-0.141,0.163-0.347,0.112c-0.033-0.18,0.126-0.227,0-0.351c-0.237-0.027,0.061,0.208-0.237,0.181
		c-0.143-0.152,0.057-0.292,0.119-0.412c-0.172,0.051-0.182,0.051-0.351,0c0.212-0.308-0.083-0.587,0.113-0.766
		c-0.113-0.141-0.307,0.085-0.472-0.057c0.044-0.188,0.307-0.359,0.472-0.238c-0.006-0.169,0.032-0.382-0.058-0.47
		c-0.05,0.033-0.096,0.063-0.176,0.061c-0.169,0.006-0.108,0.243-0.122,0.409c-0.417-0.24,0.248-0.626-0.172-0.941
		c-0.035,0.228-0.284,0.232-0.238,0.532c-0.3-0.048-0.222,0.283-0.235,0.528c0.229,0.064,0.207-0.21,0.354-0.06
		c-0.061,0.089-0.203,0.251,0,0.295c-0.05,0.166-0.187-0.03-0.288,0c0.037,0.161-0.285,0.251-0.065,0.472
		c0.181-0.042-0.051-0.129,0-0.237c0.116,0.118,0.264,0.161,0.235-0.12c0.142-0.022,0.128,0.109,0.294,0.061
		c-0.326,0.124-0.026,0.82-0.349,1.061c-0.184-0.06-0.078-0.396-0.359-0.353c0.192,0.418,0.501,0.712,0.589,1.232
		c0.055-0.203,0.308-0.203,0.357-0.414c0.218,0.092,0.694,0.12,0.767-0.116c0.169,0.038-0.063,0.129,0,0.236h0.23
		c0.08-0.073,0.111-0.2,0.12-0.351c0.185-0.052,0.119,0.15,0.233,0.176c0.152-0.046,0.249-0.143,0.29-0.296
		c0.162,0.073,0.213,0.262,0.471,0.234c-0.048,0.525,0.064,1.036,0,1.53c-0.036,0.299-0.21,0.552-0.234,0.82
		c-0.013,0.198,0.069,0.382,0.06,0.589c-0.037,0.799-0.157,1.745-0.296,2.409c-0.234,1.168,0.372,2.391,0.236,3.821
		c-0.157-0.021,0.06,0.327-0.174,0.232c0.017,0.315,0,0.531,0,0.945c0,0.448-0.251,0.947-0.235,1.408
		c0.012,0.315,0.244,0.61,0.295,0.938c0.082,0.538,0.012,1.21,0.058,1.822c0.057,0.68,0.116,1.387,0.116,2.001
		c0,1.064,0.069,2.049,0.115,3.053c0.026,0.499,0.104,1.076,0,1.528c-0.022,0.121-0.143,0.223-0.175,0.352
		c-0.032,0.154,0.129,0.404-0.114,0.469c0.295-0.521-0.556-0.441-0.709-0.525c-0.107,0.981-0.016,1.872,0,3.058
		c-0.169,0.139-0.218,0.404-0.414,0.528c0.162,1.998-0.261,3.811,0.127,5.463c0.047,0.24,0.198,0.456,0.23,0.706
		c0.14,1.057-0.252,2.163-0.112,3.351c-0.17-0.052-0.158,0.082-0.296,0.057c-0.024,0.159,0.33-0.052,0.233,0.179
		c-0.099,0.23-0.347,0.134-0.53,0.171c-0.701,0.154-1.496,0.357-2.293,0.414c0.019-0.134-0.009-0.221-0.062-0.292
		c-0.611,0.124-1.394,0.248-1.988,0.06c-0.073,0.012-0.055,0.106-0.066,0.176c-2.808,0.153-6.378,0.3-8.812,0.823
		c-0.707,0.424-1.086,1.434-2.408,1.059c-0.025-0.119,0.343-0.158,0.053-0.178c0.039-0.216,0.36-0.156,0.533-0.236
		c0.044-0.235,0.044-0.24,0-0.474c0.401-0.047,0.736-0.161,1.059-0.292c-0.146-0.214-0.543-0.112-0.883-0.114
		c-1.194-0.008-2.247,0.137-3.41,0.176c-0.044,0.013-0.042,0.037-0.024,0.047c-0.925-0.339-2.244-0.471-3.327-0.108
		c-0.127,0.042-0.172,0.178-0.231,0.292c-0.374,0.022-0.622-0.116-0.937,0c-0.191,0.042-0.094-0.108-0.002-0.114
		c-0.326-0.408-1.298-0.183-1.647-0.408c-0.776,0.208-1.632,0.074-2.584,0.173c-0.102,0.08-0.231,0.119-0.238,0.293
		c0.33,0.208,0.992,0.072,1.411,0.179c-0.146,0.022-0.479,0.211-0.762,0.173c-0.19-0.02-0.344-0.181-0.593,0
		c-0.289-0.285-0.565,0.045-0.819-0.173c-0.049,0.168-0.128,0.245-0.06,0.525c0.281,0.057,0.313-0.353,0.533-0.174
		c0.176-0.039-0.06-0.124,0-0.235c0.505,0.429,1.367-0.005,2.171,0.293c0.005,0.163-0.142,0.173-0.295,0.179
		c0.083,0.116,0.304,0.089,0.414,0.178c-0.045,0.129-0.331,0.021-0.466,0.058c0.093-0.117-0.01-0.074,0-0.235
		c-0.226,0.178-0.462,0.01-0.653,0.178c-0.213,0.062-0.19-0.129-0.292-0.178c-0.281-0.043-0.245,0.188-0.289,0.235
		c-0.236,0.005-0.678,0.007-0.533-0.177c-0.499,0.013-0.812,0.362-1.235,0.06c-0.816,0.231-1.851,0.1-2.763,0.06
		c-0.005-0.161,0.099-0.119,0-0.24c-0.707,0.047-1.307-0.374-2.173-0.353c-0.064-0.106-0.23-0.121-0.295-0.235
		c-2.415-0.424-4.677-0.389-7.228-0.116c-0.194,0.057-0.276,0.238-0.474,0.295c-0.207-0.024-0.358-0.104-0.467-0.238
		c-0.533,0.258-1.604,0.191-2.173,0.238c0.184,0.092,0.43,0.116,0.702,0.116c-0.1,0.301,0.253,0.14,0.235,0.355
		c-0.186-0.082-0.193-0.016-0.414,0c0.025-0.122-0.034-0.156-0.051-0.236c-0.294,0.048-0.554,0.09-0.827,0
		c-0.166,0.253-0.29,0.397-0.588,0.472c-0.138,0.029-0.073-0.111-0.116-0.117c-0.139-0.02-0.373,0.253-0.528,0.117
		c0.133-0.251,0.292-0.253,0.116-0.591c0.435,0.013,0.544,0.04,0.883-0.06c0.03-0.421-0.42-0.161-0.646-0.173
		c-0.271-0.021-0.611-0.122-0.884-0.122c-0.303,0.016-1.037,0.184-1.53,0.182c-0.063,0.032,0.026,0.312-0.289,0.235
		c0.003,0.171,0.244,0.106,0.413,0.114c0.193,0.443-0.725,0.538-0.652,0.297c-0.538,0.062-1.404,0.206-1.999,0.117
		c-0.185-0.03-0.329-0.241-0.465-0.177c0.056-0.223,0.387-0.181,0.589-0.237c0.205-0.058,0.584-0.198,0.998-0.177
		c-0.056,0.193,0.091,0.187,0.169,0.238c0.05-0.018,0.063-0.062,0.125-0.062c0.021-0.1-0.052-0.106-0.125-0.114
		c0.031-0.169,0.445,0.052,0.472-0.122c-0.188-0.279-0.517-0.054-0.761-0.057c-0.493-0.005-1.071-0.166-1.529,0
		c-0.206,0.187-0.169,0.35-0.296,0.53c-0.214,0.04-0.311-0.039-0.406-0.121c0.04-0.077,0.124-0.106,0.235-0.116
		c-0.066-0.191-0.195,0.017-0.235-0.236c-0.928,0.07-1.753-0.337-2.35,0.06c-0.218,0.062-0.103,0.454-0.414,0.414
		c-0.033-0.21,0.207-0.146,0.18-0.352c-0.092-0.268-0.749,0.04-0.828-0.235c-1.23,0.292-3.254-0.109-4.406,0.587
		c-0.179-0.074-0.296-0.242-0.521-0.123c0.05-0.06,0.117-0.114,0.173-0.172c-0.164-0.24-0.542-0.039-0.822-0.057
		c-0.086,0.221,0.261,0.013,0.171,0.23c-0.263-0.027-0.322,0.151-0.413,0.298c-0.189,0.018-0.122-0.229-0.291-0.235
		c-0.285,0.007-0.586,0.002-0.646,0.235c-0.875-0.035-1.354-0.035-2.233-0.177c-0.069,0.013-0.049,0.109-0.056,0.177h-1.707
		c0.232-0.278,0.98-0.037,1.23-0.298c-0.584,0.008-0.926-0.174-1.522-0.116c-0.009-0.159,0.098-0.114,0-0.236
		c-0.291,0.072-0.632-0.057-1.003,0c-0.11,0.021-0.233,0.122-0.35,0.122c-0.367,0-0.806-0.315-0.947-0.062
		c-0.106,0.075-0.367,0.146-0.463,0.062c0.267-0.305,0.661-0.219,1.06-0.295c0.011-0.129-0.215-0.03-0.301-0.062
		c-0.025-0.119,0.086-0.106,0.175-0.116c-0.485-0.24-1.027-0.224-1.642-0.235c-0.111,0.052-0.176,0.282,0,0.292
		c-0.111,0.124-0.469,0-0.527,0.182c0.136,0.312,0.582,0.034,0.937,0.173c-1.164,0.241-2.767,0.048-3.76,0.474
		c0.006-0.06,0.075-0.047,0.12-0.06c-0.082-0.23-0.559-0.066-0.822-0.121c-0.188-0.1-0.312-0.1-0.357-0.23
		c-0.099,0.114-0.341,0.087-0.465,0.176c0.04,0.261,0.413-0.079,0.413,0.295c-0.455,0.146-1.109,0.035-1.535-0.06
		c-0.391-0.094-0.827-0.01-1.286-0.06c-0.595-0.064-1.198-0.339-1.942-0.474c-0.619-0.106-1.306-0.24-1.821-0.295
		c-0.39-0.032-0.873-0.042-1.173,0.06c-0.352,0.122-0.419,0.494-0.886,0.65c-0.265-0.246-0.203-0.559-0.525-0.881
		c-0.635-0.142-1.134,0.203-0.943,0.525c-0.202-0.029-0.105-0.361-0.292-0.411c0.062-0.148,0.312-0.114,0.531-0.114
		c0.075-0.233-0.221-0.142-0.062-0.298c-0.871,0.018-1.693,0.005-2.47,0.177c-0.233-0.725,0.399-2.225-0.997-1.994
		c0.042-2.157-0.094-3.554-0.057-5.644c-0.028-0.085-0.081,0.027-0.181,0c-0.035-0.269,0.028-0.449,0.181-0.528
		c0.034-0.193-0.037-0.271-0.058-0.414c-0.044-0.188-0.465-0.01-0.412-0.29c0.254,0.002,0.435-0.067,0.412-0.355
		c-0.069,0.013-0.052,0.107-0.062,0.182c-0.183-0.396,0.176-1.032-0.176-1.178c0.024-0.075,0.076-0.119,0.176-0.114
		c-0.159-0.198-0.272-0.256-0.351-0.414c-0.007-0.226,0.043-0.022,0.175-0.062c0.258-0.25-0.016-0.652,0.114-0.88
		c0.415,0.057,0.461-0.005,0.823-0.06c-0.219-0.092-0.219-0.401-0.355-0.585c-0.324,0.017-0.612-0.018-0.818-0.124
		c0.104-0.109,0.09-0.343,0.236-0.409c0.017-0.119-0.17,0.015-0.175,0.057c-0.138-0.04-0.023-0.325-0.062-0.464
		c0.08,0.013,0.055,0.146,0.062,0.238c0.101,0.003,0.12-0.077,0.236-0.062c0.124-0.298,0.114-0.441-0.062-0.647
		c-0.045,0.05-0.161,0.034-0.175,0.116c-0.138-0.047-0.023-0.327-0.062-0.471c0.162-0.035,0.248-0.145,0.412-0.177
		c-0.005-0.144-0.008-0.282,0.062-0.347c0.08,0,0.162,0.005,0.17-0.062c0.148,0.112,0.474,0.035,0.708,0.062
		c0.109-0.018,0.119,0.05,0.06,0.055h-0.237c-0.206,0.111-0.338-0.005-0.586,0c0.067,0.511,0.594,0.198,0.997,0.352
		c0.137-0.272,0.02-0.803,0.06-1.173c-0.204,0.074-0.751-0.024-1.232,0c-0.042-0.295-0.086-0.352-0.062-0.474
		c0.293-0.314,1.291,0.1,1.294-0.352c-0.015-0.082-0.293,0.057-0.471,0c-0.003-0.219,0.264-0.174,0.471-0.177
		c-0.04-1.959,0.077-4.076-0.06-5.938c-0.496,0.163-1.1,0.102-1.585,0.184c0.04-0.311-0.024-0.826,0-1.3
		c0.08,0.077,0.216,0.077,0.298,0c-0.116-0.308,0.033-0.521-0.062-0.818c-0.154-0.042-0.114,0.119-0.175,0.176
		c-0.126-1.887-0.029-4.675-0.062-6.643c0.308-0.084,0.531-0.25,0.883-0.289c-0.108,0.205-0.443,0.175-0.646,0.289
		c0.107,0.276,0.306-0.084,0.47-0.115c0.204,0.149,0.269,0.247,0.294,0.473c0.138-0.092,0.092-0.146,0.057-0.298
		c0.284,0.026,0.268-0.241,0.588-0.175c-0.024-0.286,0.06-0.69-0.06-0.882c-0.341,0.338-0.9,0.013-1.054,0.472
		c-0.239-0.159-0.097-0.565-0.119-0.828c-0.008-0.138-0.114-0.302-0.005-0.522c-0.293,0.211-0.047,0.766-0.229,1.167
		c-0.216-0.06-0.017-0.401,0-0.645c0.013-0.171-0.099-0.538,0.058-0.759c0.144,0.243,0.062-0.081,0.295-0.06
		c-0.295-0.156-0.062-0.311-0.119-0.763h0.294c0.046-0.349-0.175-0.256,0-0.471c-0.118-0.126-0.135,0.062-0.232,0.115
		c-0.136-0.064-0.023-0.371-0.062-0.53c0.082,0.017,0.047,0.148,0.062,0.237c0.194-0.362,0.232-0.913,0.17-1.41
		c0.058-0.052,0.141-0.062,0.239-0.057c-0.171-0.326-0.341-0.775-0.117-1.236c-0.021-0.206-0.263,0.104-0.234-0.057
		c-0.013-0.263,0.163,0.023,0.234-0.119c-0.031-0.146-0.136-0.219-0.234-0.293c0.203-0.68,0.203-1.04,0.112-1.646
		c0.347,0.092,0.635-0.092,0.827,0.176c0.304-0.084,0.132-0.649,0.174-1.001c-0.156-0.075-0.699,0.071-1.057-0.062
		c-0.114-0.261,0.229-0.686-0.114-0.64c0.228-0.152-0.113-0.531,0.232-0.531c-0.019-0.076-0.147-0.047-0.232-0.059
		c0.058-0.256-0.062-0.671,0.17-0.878c-0.023-0.075-0.072-0.119-0.17-0.119c0.201-0.341,0.228-1.047-0.062-1.176
		c0.018-0.083,0.146-0.05,0.231-0.066c-0.204-0.404-0.016-0.845,0.413-0.936c0.114-0.06-0.146-0.238-0.174-0.354
		c-0.163-0.038,0.039,0.28-0.117,0.239c-0.271-0.078-0.021-0.543,0-0.708c-0.27,0.076-0.13,0.538-0.292,0.706
		c-0.023-0.285,0.119-0.85-0.176-1.113c-0.367,0.161,0.244,0.511-0.181,0.766c0.253,0.05,0.074,0.264,0.181,0.35
		c-0.02,0.081-0.146,0.05-0.236,0.055c0.069,0.193,0.317,0.43,0,0.531c0.061,0.052,0.019,0.216,0.175,0.181
		c-0.058,0.132-0.204,0.184-0.175,0.409c-0.143-0.902-0.021-2.056-0.062-3.062c0.326,0.137,0.588,0.217,0.883,0.183
		c0.231-0.029,0.404-0.324,0.702-0.183c0.137-0.062,0.024-0.367,0.06-0.521c-0.446,0.125-1.284,0.011-1.645,0.057
		c0.021-0.408-0.052-0.92,0.062-1.232h0.526c-0.074-0.166-0.335-0.026-0.588-0.116c0.092-0.303-0.223-1.01,0.236-0.945
		c-0.436-0.113-0.156-0.939-0.236-1.409c0.338,0.405,0.886,0.604,1.174,1.058c0.097-0.154-0.021-0.335,0.061-0.588
		c0.135-0.024,0.301-0.114,0.41,0v-8.992c-0.024-0.069-0.077-0.119-0.174-0.119c0.132-0.305-0.018-0.424-0.119-0.647
		c0.097,0.007,0.151-0.038,0.177-0.118c-0.097-0.293-0.403-0.377-0.528-0.644c-0.127,0.397,0.029,0.665,0.234,0.938
		c-0.091,0.05-0.086,0.193-0.12,0.303c-0.519-0.18-0.702-0.274-1.114-0.246v-0.878c0.225,0.283,0.151-0.228,0.474-0.172
		c-0.143-0.099-0.203-0.274-0.295-0.412c-0.027-0.081,0.29-0.028,0.233,0.113c0.362-0.186-0.159-0.396,0-0.585
		c-0.164,0.007-0.242,0.106-0.412,0.122c0.151-0.256,0.151-0.05,0-0.298c0.075-0.203,0.191-0.09,0.179-0.295
		c0.04-0.154-0.124-0.117-0.179-0.179c0.09-2.138-0.213-3.973,0.236-5.697c0.024-0.09,0.147-0.157,0.176-0.23
		c0.166-0.492,0.109-0.974,0.176-1.475c0.008-0.056,0.113-0.171,0.118-0.235c0.028-0.558-0.128-1.09,0-1.644
		c0.06-0.25,0.052-0.035,0-0.296c-0.076-0.341-0.076-1.11-0.062-1.467c0.012-0.097,0.031-0.109,0.119-0.117
		c-0.231-0.1-0.119-0.188-0.119-0.592c0.141,0.119,0.159,0.119,0.294,0c-0.005-0.697-0.508-1.699-0.231-2.228
		c-0.252-0.083-0.21-0.459-0.232-0.766c0.098,0.062,0.068,0.253,0.114,0.354c0.209-0.912-0.228-1.953,0-2.882
		c0.087-0.03,0.146-0.088,0.23-0.118c-0.061-0.218-0.198-0.567,0.064-0.703c-0.108-1.185,0.593-2.324,0.231-3.35
		c-0.188-0.538-0.866-0.603-0.816-1.235c0.224-0.091,0.015,0.254,0.176,0.235c0.156-0.145-0.292-0.417-0.062-0.646
		c0.082,0.021,0.047,0.15,0.062,0.232c0.271-0.102-0.062-0.286-0.062-0.467c0.13-0.028,0.082,0.113,0.176,0.119
		c-0.272-0.369-0.181-0.763-0.237-1.292c-0.135-0.046-0.181-0.063-0.351-0.177c0.191-0.227-0.007-0.161,0-0.473
		c0.095-0.018,0.1,0.06,0.179,0.062c-0.23-0.269,0.182-0.669-0.179-0.881v-1.003c0.055-0.046,0.128-0.063,0.236-0.057
		c-0.426-0.207,0.114-0.573,0-0.998h0.295c-0.013-0.069-0.109-0.051-0.181-0.062c-0.072-0.147,0.033-0.187-0.053-0.232
		c0.04-0.159-0.027-0.793,0.053-0.414c0.038,0.08,0.181-0.05,0.237,0.12c0.156-0.074,0.187-0.051,0.118-0.235
		c0.18-0.082,0.317,0.026,0.528,0.054c0.135,0.29-0.063,0.516,0.294,0.414c-0.124,0.114-0.221,0.25-0.294,0.414
		c-0.237,0.079-0.209-0.108-0.297-0.175c-0.186-0.075-0.044,0.189-0.231,0.118c0.046,0.108,0.097,0.213,0.112,0.347
		c0.137-0.02,0.216-0.1,0.238-0.226c0.222,0.01,0.168,0.297,0.354,0.344c0.439-0.209,0.156-1.134,0.233-1.7
		c-0.258-0.232-0.707-0.272-0.826-0.647c-0.144,0.006-0.079,0.228-0.23,0.233c0.032,0.188,0.248,0.188,0.23,0.414
		c-0.198-0.068-0.339-0.206-0.521-0.295c-0.092-0.437,0.216-0.485,0.521-0.527c-0.144-0.127-0.247-0.301-0.582-0.239
		c0.024-0.276,0-0.502-0.114-0.64c0.25,0.198-0.137-0.278,0.229-0.182c0.028-0.141-0.261,0.032-0.172-0.175
		c0.205-0.102,0.205-0.021,0.295,0.115c0.329-0.104,0.761-0.106,1.171,0v-0.235c-0.424-0.322-1.103-0.028-1.527-0.411
		c-0.027-0.024-0.054,0.083-0.008,0.06c-0.218,0.114-0.06-0.637-0.109-0.881c0.1-0.187,0.018,0.285,0.117,0.292
		c0.136-0.079,0.022-0.405,0.062-0.587c0.638,0.032,0.873,0.263,1.466,0.235c0.008-0.203-0.304-0.085-0.349-0.235
		c0.128-0.088,0.051-0.375,0.349-0.292v-2.295c-0.072-0.265-0.491-0.193-0.645-0.232c0.144-0.456-0.216-0.414-0.356-0.586
		c0.173-0.051,0.205-0.076,0.294,0.057c-0.027-0.309,0.008-1.065,0-1.76c-0.052,0-0.044,0.068-0.055,0.114
		c-0.352-0.368-0.177-0.596,0-0.997c-0.064-0.193-0.188-0.267-0.117-0.471c-0.11,0.046-0.219,0.097-0.354,0.113v-0.405
		c0.181,0.04,0.109,0.04,0.294,0c0.08,0.034,0.011,0.225,0.112,0.232c0.216-0.612,0.03-1.458,0.064-1.998
		c-0.08-0.119-0.387-0.006-0.295-0.289c0.056,0.037,0.067,0.13,0.178,0.113c0.078-0.04-0.054-0.178,0.117-0.232
		c-0.047-0.25-0.312-0.283-0.239-0.646c-0.13,0.006-0.023,0.244-0.056,0.352c-0.138-0.023-0.134-0.181-0.237-0.235
		c-0.145,0.107,0.203,0.224,0.181,0.405c-0.2,0.17-0.109,0.26-0.181,0.533c-0.121-0.127,0.079-0.344-0.172-0.408
		c0.058-0.079,0.159-0.125,0.233-0.178c-0.008-0.133-0.148,0.075-0.295,0c-0.085-0.23-0.037-0.587-0.117-0.825
		c0.216-0.057,0.055,0.267,0.236,0.238c0.09-0.085,0.124-0.23,0.114-0.411c0.062,0.156,0.208,0.224,0.237,0.411
		c0.142,0.021-0.029-0.269,0.178-0.178c0.019-0.201-0.297-0.218-0.122-0.411c-0.039,0.034-0.09,0.062-0.17,0.062
		c-0.005-0.454,0.318-0.658,0.114-0.946c0.042-0.176,0.124,0.06,0.23,0c0.018-0.103-0.053-0.114-0.053-0.057
		c-0.188-0.108,0.089-0.252,0.053-0.407c-0.007-0.154-0.099,0.079-0.23,0c0.215-0.11,0.113-0.177,0.118-0.474
		c0.143,0.149,0.13-0.116,0.177-0.235c-0.228-0.17-0.019-0.283-0.352-0.412c-0.022-0.076,0.079-0.184,0.099-0.212
		c-0.01,0.005-0.02,0.021-0.042,0.04c-0.148-0.028,0.056-0.17,0.178-0.12c-0.031-0.102,0.189-0.617-0.06-0.827
		c0.267-0.482,0.011-1.707,0.112-2.469c-0.23,0.066-0.163,0.243-0.468,0.122c-0.063-0.067-0.063-0.209-0.053-0.354
		c-0.062-0.207-0.26,0.052-0.236-0.175c-0.035-0.235,0.251,0,0.289,0.055c0.181-0.236-0.043-0.572,0-0.878
		c-0.132,0.067-0.02,0.371-0.053,0.532c-0.05,0.186-0.082-0.108-0.062-0.181c-0.018-0.072-0.119-0.057-0.119,0
		c-0.216-0.13,0.034-0.171,0.062-0.351c0.042-0.324-0.124-1.265,0.119-1.173c-0.106-0.777-0.045-1.723-0.181-2.47
		c0.17-0.069,0.362-0.104,0.589-0.115c0.091-3.043-0.227-5.9,0.06-8.812c-0.071-0.092-0.073-0.244-0.178-0.301
		c0.042-1.57-0.074-2.976-0.057-4.522c-0.216-0.018-0.38,0.006-0.531,0.062v-0.474c0.219,0.027,0.271-0.122,0.351-0.235
		c0.181,0.164-0.172,0.287-0.233,0.412c0.089,0.177,0.262-0.05,0.414,0c-0.013-0.604-0.055-1.051-0.058-1.472
		c-0.09-0.188-0.136-0.144-0.356-0.113c0.053-0.108,0.163-0.148,0.119-0.354c0.119-0.117,0.114,0.024,0.237,0.059v-0.409
		c-0.044-0.136-0.334-0.028-0.474-0.062c0.066-0.232,0.292,0.029,0.474-0.119c-0.005-0.286,0.029-0.618-0.062-0.823
		c-0.114,0.041-0.134,0.176-0.233,0.239c-0.039,0.25,0.191,0.237,0.172,0.465c-0.132-0.113-0.172-0.131-0.233,0.062
		c-0.261-0.385-0.051-1.247-0.117-1.819c0.117,0.493,0.201-0.253,0.298,0.232c0.249-0.039,0.188-0.509,0.114-0.708
		c-0.142,0.058-0.29,0.103-0.233,0.354c-0.17-0.081-0.186-0.327-0.179-0.586c0.151-0.069,0.196-0.235,0.412-0.235
		c-0.005-0.083-0.008-0.168,0.062-0.179c0.085-1.388-0.268-3.287-0.062-4.993c0.018-0.097,0.018-0.114,0.119-0.119
		c-0.151-0.083-0.109-0.363-0.295-0.412c-0.105-0.24,0.285-0.479,0.114-0.408c-0.181-0.19,0.106-0.031,0.168-0.092
		c-0.042,0.177,0.456,0.27,0.308,0.497c0.297-0.133-0.125-0.264-0.183-0.405c0.114-0.092,0.324,0.223,0.471,0.292
		c-0.221-0.297,0.084-0.092-0.107-0.409c0.133,0.094,0.248,0.207,0.404,0.29c-0.034-0.249-0.627-0.521-0.528-0.528
		c0.299,0.114,0.458,0.369,0.702,0.528c-0.079-0.232-0.307-0.312-0.468-0.47c0.113-0.121,0.274,0.193,0.411,0.238
		c-0.013-0.221-0.25-0.221-0.354-0.354c0.258,0,0.565,0.453,0.88,0.586c0.164-0.147-0.069-0.172-0.052-0.352
		c0.133,0.04,0.151,0.195,0.295,0.236c-0.018-0.167-0.191-0.162-0.243-0.295c-0.261,0.19-0.279,0.165-0.18,0.054
		c0.002,0.002,0.005,0.002,0.009,0.005c0-0.002-0.004-0.005-0.007-0.005c0.044-0.046,0.105-0.109,0.178-0.171
		c-0.25,0.036-0.417-0.254-0.643-0.413c-0.108-0.159,0.183,0.08,0.233,0.122c0.159-0.055-0.129-0.133-0.116-0.236
		c-0.08-0.136,0.232,0.246,0.354,0.29c0.069-0.187-0.414-0.306-0.122-0.352c0.132,0.171,0.177,0.425,0.354,0.531
		c0.081-0.023,0.008-0.105-0.062-0.116c0.069-0.114,0.506,0.227,0.243,0.292c0.126,0.087,0.188-0.159,0.347,0.059
		c-0.102-0.235-0.421-0.244-0.471-0.529c0.158,0.138,0.331,0.26,0.471,0.411c0.102-0.181-0.384-0.277-0.41-0.527
		c0.154,0.08,0.224,0.244,0.41,0.295c-0.447-0.206-0.038-0.62-0.525-0.765c0.121-0.11,0.243-0.012,0.353,0
		c0.007-0.151-0.092-0.179-0.121-0.294c-0.07,0.016-0.053,0.119,0,0.119c-0.125,0.132-0.314-0.216-0.118-0.298
		c-0.237,0.023-0.126-0.019-0.116-0.173c-0.054,0.046-0.088,0.108-0.113,0.173c-0.077-0.03,0.035-0.217-0.064-0.349
		c0.152-0.005,0.186-0.106,0.296,0c-0.037-0.221-0.045-0.18-0.061-0.47c-0.146-0.091-0.171,0.198-0.058,0.175
		c-0.043,0.073-0.312-0.071-0.178-0.232c-0.225,0.142-0.1-0.125-0.353-0.175c0.084-0.147,0.206-0.105,0.353-0.062
		c-0.021-0.113-0.225-0.051-0.177-0.239c0.159-0.036,0.122,0.119,0.241,0.119c-0.198-0.138-0.14-0.533-0.417-0.584
		c0.009-0.258,0.154-0.474-0.174-0.474c0.174-0.161,0.372-0.059,0.591-0.233c-0.021-0.075-0.119-0.062-0.119,0
		c-0.214-0.035,0.154-0.296-0.122-0.233c-0.006-0.165,0.09-0.205,0.177-0.119c-0.035-0.182-0.273-0.154-0.293-0.352
		c0.087,0.09,0.248-0.006,0.293-0.12c-0.109-0.022-0.087-0.133-0.293-0.06c0.167-0.223-0.15-0.226,0-0.407
		c0.06,0.161-0.003,0.048,0.238-0.003c-0.071-0.25-0.196-0.403,0-0.527c-0.062-0.18-0.161,0.06-0.179,0.114
		c-0.084-0.11-0.137-0.25-0.176-0.409c0.034-0.082,0.227-0.012,0.232-0.12c-0.052-0.249-0.184-0.246-0.35-0.47
		c0.124-0.255,0.013-0.402,0.233-0.583c-0.106-0.153-0.196-0.312-0.174-0.59c0.156,0.159,0.114-0.294,0.058-0.47
		c0.525,0.199,0.714-0.375,1.354-0.177c-0.074-0.206-0.074-0.208-0.238-0.237c0.276-0.114,0.023-0.437,0.357-0.527
		c-0.1-0.102-0.266-0.128-0.474-0.12c0.169-0.069,0.341-0.131,0.409-0.294c-0.011-0.126-0.258-0.018-0.293-0.117
		c0.05-0.117,0.206-0.209,0.293-0.117c-0.042-0.171-0.179-0.253-0.293-0.35c-0.071-0.193,0.193-0.046,0.121-0.237
		c-0.055-0.064-0.138,0.005-0.24-0.114c0.013-0.111,0.202-0.04,0.24-0.12c-0.012-0.125-0.148-0.125-0.294-0.115
		c0.033-0.128,0.089-0.128,0.173-0.062c0.095-0.223-0.254-0.414,0-0.298c-0.044-0.124-0.203-0.141-0.294-0.232
		c0.223-0.207,0.121-0.136,0.294-0.354c0.029-0.183-0.288-0.025-0.237-0.235c0.171-0.164,0.136,0.002,0.181-0.296
		c-0.021-0.072-0.146-0.044-0.237-0.056c0.477-0.38-0.918-0.142-0.998-0.523c-0.073,0.067-0.097,0.02-0.178,0
		c0.113-0.131,0.581,0.064,0.646,0c0.072,0.07,0.054,0.115-0.06,0.115c0.025,0.131,0.312,0,0.354,0.12
		c0.145-0.176-0.23-0.204-0.113-0.533c-0.104,0.147-0.102,0.085-0.236,0C175.502,0.035,175.836,0.261,176,0h86.797
		c0.092,0.215-0.231,0.493,0.057,0.53c0.009,0.127-0.045,0.184-0.174,0.179c0.109,0.385,0.042,0.822-0.058,1.054
		c0.014,0.083,0.141,0.051,0.231,0.06v0.411c-0.158-0.54-0.344,0.146-0.057,0.297c-0.436,0.456,0.337,1.272-0.175,1.584
		c-0.022,0.154,0.329-0.055,0.231,0.175c-0.158,0.005-0.118-0.096-0.231,0c0.124,0.484,0.237,0.847-0.12,1.236
		c0.019,0.079,0.145,0.048,0.233,0.057c0.005,0.533-0.046,0.909,0.181,1.415c0.153-0.071,0-0.31,0-0.414
		c0.226,0.067,0.07,0.515,0.116,0.762c-0.116-0.014-0.161-0.117-0.235-0.177c-0.068,0.177,0.074,0.163-0.062,0.414
		c-0.017,0.098,0.218,0.199,0.234,0.057c0.098,0.241,0.088,0.575,0.122,0.881c0.031,0.133,0.091-0.074,0.174,0.06
		c0.037,0.992,0.315,1.959,0.175,2.942c-0.033,0.246-0.202,0.469-0.234,0.703c-0.046,0.332,0.032,0.702,0,1.056
		c-0.023,0.271-0.037,0.536-0.057,0.822c-0.058,0.774-0.317,1.559-0.233,2.349c0.043,0.442,0.133,0.876,0.176,1.295
		c0.082,0.825,0.022,1.426-0.06,2.173c-0.076,0.639-0.292,1.371-0.235,2.001c0.03,0.379,0.261,0.739,0.295,1.117
		c0.053,0.668,0,1.587,0.058,2.409c0.057,0.842,0.073,1.745,0.116,2.585c0.032,0.555-0.027,1.02-0.06,1.529
		c-0.023,0.459,0.136,0.899,0.175,1.35c0.056,0.637-0.051,1.218,0,1.882c-0.115-0.017-0.112-0.159-0.231-0.176
		c-0.138,0.068,0.148,0.199,0.231,0.238c-0.051,0.29,0.091,0.679-0.115,0.58c-0.043,0.186,0.201,0.075,0.115,0.298
		c-0.046-0.025-0.102-0.051-0.115-0.113c0,0.056,0.115,0.47,0.064,0.759c-0.107,0.005-0.13-0.074-0.238-0.06
		c-0.022,0.154,0.228,0.048,0.174,0.234c-0.157,0.046-0.116-0.119-0.233-0.119c0.035,0.126,0.112,0.205,0.233,0.234
		c-0.05,0.152-0.072,0.318-0.06,0.532c-0.188,0.051-0.174-0.09-0.29-0.118c-0.107,0.04,0.096,0.247,0.233,0.232
		c-0.108,0.203,0.011,0.286,0,0.532c-0.287-0.028-0.363-0.264-0.591-0.352c-0.07,0.172,0.428,0.281,0.533,0.471
		c0,0.267-0.176-0.083-0.295-0.06c0.041,0.156,0.141,0.249,0.295,0.297c-0.283,0.042-0.571-0.411-0.94-0.477
		c0.237,0.21,0.484,0.411,0.765,0.593c-0.13,0.104-0.357-0.195-0.533-0.239c-0.011,0.213,0.277,0.116,0.239,0.355
		c-0.112-0.025-0.15-0.131-0.296-0.116c0.023,0.11,0.227,0.042,0.176,0.235c-0.243-0.017-0.247-0.26-0.533-0.235
		c0.12,0.116,0.216,0.254,0.357,0.348c0.111,0.133-0.25-0.141-0.357-0.175c-0.077,0.072,0.216,0.255,0.357,0.292
		c-0.357,0.047-0.742-0.389-1.06-0.581c-0.106,0.029,0.1,0.238,0.238,0.232c-0.3,0.119,0.065,0.267-0.176,0.349
		c0.046,0.132,0.202,0.149,0.292,0.238c0.043-0.182-0.207-0.069-0.116-0.292c0.278,0.145,0.544,0.434,0.76,0.467
		c-0.034,0.145-0.268,0.009-0.296-0.059c-0.084,0.025,0.028,0.077,0,0.182c-0.18-0.018-0.261-0.13-0.406-0.182
		c0.038,0.12,0.175,0.14,0.237,0.238c-0.087,0.136-0.386-0.067-0.119,0.117c-0.131,0.198-0.271-0.081-0.414-0.061
		c0.081,0.136,0.244,0.187,0.354,0.295c-0.011,0.065-0.104,0.048-0.172,0.058c0.043,0.129,0.197,0.152,0.288,0.237
		c-0.067,0.175-0.221-0.042-0.288-0.06c-0.143,0.062,0.142,0.193,0.229,0.235c-0.101,0.09-0.356-0.158-0.528-0.175
		c-0.064,0.148,0.393,0.265,0.53,0.409c-0.149,0.203-0.267-0.12-0.414-0.117c0.012,0.225,0.328,0.145,0.354,0.354
		c-0.037,0.198-0.09,0.34-0.29,0.237c0.126,0.108,0.242,0.228,0.406,0.29c-0.232,0.028-0.374,0.189-0.587,0
		c-0.109,0.012-0.036,0.191-0.179,0.182c0.069,0.127,0.179,0.209,0.357,0.232c0.034-0.324-0.188-0.025-0.238-0.232
		c0.064-0.209,0.294,0.204,0.358,0c0.018,0.251,0.288,0.267,0.469,0.524c-0.192,0.071-0.045-0.191-0.237-0.116
		c-0.152,0.116,0.301,0.121,0.237,0.348c-0.081-0.071-0.118-0.172-0.237-0.055c-0.07,0.187,0.192,0.046,0.119,0.232
		c-0.179-0.115-0.386-0.207-0.593-0.294c0.115,0.126,0.229,0.249,0.414,0.294c0.025,0.114-0.185,0.257,0.06,0.233
		c0.021,0.199-0.476-0.176-0.474,0.238c0.221,0.29,0.506-0.012,0.646,0.119c0.042,0.193-0.116,0.091-0.116,0
		c-0.232,0.132-0.245,0.155-0.53,0.175c-0.002-0.159,0.095-0.12,0-0.232c-0.198,0.228,0.035,0.334,0.122,0.47
		c0.171-0.061-0.188-0.061,0-0.181c0.266-0.023,0.209,0.286,0.352,0.238c0.04,0.192-0.124,0.097-0.176,0.057
		c0.181,0.267,0.346,0.562,0.646,0.707c-0.173,0.132-0.466-0.372-0.646-0.236c0.13,0.12,0.13,0.131,0.349,0.236
		c0.02,0.189-0.179,0.169-0.232,0.293c0.092,0.083,0.252,0.22,0.116,0.354c0.132-0.028,0.195,0.243,0.414,0.291
		c-0.043,0.15-0.154-0.107-0.298-0.057c-0.07,0.193,0.195,0.046,0.115,0.237c-0.248-0.164-0.571-0.212-0.464-0.471
		c-0.188-0.072-0.05,0.188-0.238,0.115c0.27,0.232,0.575,0.402,0.471,0.883c0.046,0.057,0.108,0.089,0.177,0.12
		c-0.103,0.108-0.409-0.062-0.529-0.12c0.024,0.12,0.158,0.12,0.236,0.173c-0.365-0.042,0.064,0.324,0.179,0.066
		c0.126-0.011,0.027,0.207,0.054,0.29c0.089,0.005,0.17,0.01,0.179-0.058c-0.009,0.153,0.17,0.25,0.232,0.351
		c-0.141,0.114-0.224-0.203-0.465-0.175c0.145,0.153,0.145,0.434,0,0.59c0.118,0.118,0.118-0.029,0.169-0.12
		c0.296,0.051,0.612,0.601,0.296,0.881c0.011,0.068,0.11,0.049,0.182,0.06c-0.018,0.176-0.232,0.164-0.232,0.354
		c-0.021,0.156,0.269-0.138,0.112-0.122c0.087-0.175,0.103,0.205,0.232,0.179c-0.022,0.086-0.076-0.021-0.176,0
		c-0.061,0.217,0.221,0.093,0.176,0.292c-0.17-0.08-0.283-0.222-0.526-0.233c-0.159,0.052,0.128,0.142,0.182,0.176
		c-0.089,0.173-0.21-0.108-0.36-0.062c0.242,0.04,0.038,0.252,0.064,0.3c0.069,0.113,0.321,0.375,0.465,0.113
		c0.138,0.018,0.138,0.153,0.063,0.236c0.165-0.009,0.068-0.281,0.289-0.236c0.181,0.283,0.118,0.425,0.297,0.706
		c-0.095,0.021-0.104-0.056-0.179-0.056c0.018,0.178-0.135,0.279,0,0.41c0.103-0.017,0.133-0.099,0.116-0.239
		c0.134,0.027,0.027,0.296,0.062,0.415c0.051-0.045,0.091-0.108,0.117-0.176c0.296,0.041,0.305,0.533,0.291,0.703
		c-0.048,0.173-0.188-0.034-0.291,0c-0.117,0.067,0.149,0.235,0.291,0.235c0.026,1.398-0.031,2.815-0.175,4.23
		c-0.06,0.589,0.01,1.219-0.116,1.822c-0.08,0.369-0.261,0.722-0.296,1.233c-0.039,0.575-0.057,1.111,0,1.587
		c0.049,0.425,0.301,0.8,0.353,1.295c0.024,0.209-0.013,0.382,0,0.59c0.113,1.512,0.396,3.042,0.234,4.521
		c-0.033,0.307-0.188,0.582-0.234,0.881c-0.083,0.562-0.046,1.159-0.114,1.766c-0.09,0.725-0.283,1.35-0.356,2.174
		c-0.017,0.301-0.17,0.573-0.177,0.822c-0.022,0.915,0.635,1.786,0.707,2.644c0.023,0.281-0.105,0.586-0.116,0.881
		c-0.016,0.386,0.116,0.755,0.116,1.118c0.003,0.566-0.06,1.093,0,1.764c0.037,0.382,0.139,0.785,0.175,1.171
		c0.091,0.98,0,2.175,0,3.292c0,1.103,0.123,2.268,0,3.237c-0.009,0.075-0.014,0.186-0.06,0.288c-0.078,0.206,0,0.397,0,0.765
		c0.003,0.42-0.135,0.963-0.175,1.469c-0.046,0.652-0.244,1.297-0.174,1.937c0.017,0.198,0.145,0.403,0.174,0.59
		c0.032,0.216-0.013,0.44,0,0.646c0.069,1.048,0.06,1.813-0.057,2.823c-0.051,0.437-0.249,0.917-0.233,1.352
		c0.013,0.347,0.244,0.648,0.29,1c0.069,0.506-0.032,1.088,0,1.644c0.092,1.377,0.141,2.545,0.234,3.94
		c0.033,0.481,0.044,1.087-0.11,1.41c0.142-0.267,0.11,0.086,0.11,0.291c-0.121-0.016-0.11-0.156-0.234-0.172
		c-0.013,0.143,0.136,0.143,0.175,0.231c0.086,0.172-0.207-0.135-0.289-0.173c-0.022,0.135-0.13,0.254,0.058,0.292
		c-0.058,0.18-0.155-0.071-0.233-0.062c0.024,0.052,0.046,0.106,0.116,0.119c-0.055,0.162-0.205-0.058-0.297-0.058
		c0.025,0.198,0.181,0.095,0,0.233c-0.221,0.01-0.017-0.047-0.056-0.176c-0.14,0.089-0.092,0.148-0.058,0.295
		c-0.125-0.034-0.193-0.122-0.296-0.177c0.202,0.221,0.396,0.34,0.176,0.591c-0.162-0.058,0.116-0.222-0.119-0.238
		c0.023,0.203-0.248,0.04-0.351-0.116c-0.152,0.116,0.254,0.17,0.232,0.354c-0.176,0.039-0.107,0.039-0.296,0
		c0.035,0.047,0.057,0.101,0.127,0.114c-0.092,0.191-0.151-0.121-0.296-0.058c0.051,0.159,0.261,0.102,0.054,0.238
		c0.064,0.069,0.156,0.113,0.235,0.169c-0.175-0.05-0.295-0.012,0.003,0.178c-0.11,0.1-0.257-0.246-0.468-0.231
		c0.124,0.095,0.218,0.211,0.345,0.291c-0.084,0.194-0.142-0.125-0.288-0.06c0.005,0.026,0.005,0.055,0.012,0.084
		c-0.007,0.008-0.012,0.021-0.012,0.033c0.005,0,0.012,0,0.017,0.002c0.037,0.201,0.103,0.446,0.398,0.526
		c-0.108,0.039-0.435,0.248-0.063,0.236c-0.054,0.17-0.09,0.066-0.232,0.056c-0.165,0.058,0.159,0.114,0.054,0.297
		c-0.076-0.017-0.09-0.104-0.173-0.115c0.017,0.099-0.06,0.099-0.06,0.175c0.054,0.161,0.206-0.102,0.297,0.058
		c-0.049,0.05-0.038,0.159-0.118,0.177c0.133,0.052,0.16,0.195,0.352,0.176c-0.103,0.137-0.26,0.208-0.298,0.414
		c0.235,0.189,0.144,0.391,0.36,0.525c-0.029,0.09-0.079-0.021-0.182,0c0.068,0.081,0.021,0.097,0,0.178
		c0.329,0.091-0.073,0.152-0.063,0.351c0,0.015,0.248,0.295-0.051,0.295c0.061,0.17,0.156,0.31,0.29,0.414
		c-0.266-0.059-0.159,0.329-0.408,0.351c0.276,0.255,0.352,0.402,0.526,0.409c0.148,0.029,0.023,0.158-0.083,0.134
		c0.124,0.064-0.041,0.139,0.083,0.223c-0.051,0.104-0.134,0.226-0.23,0.117c0.062,0.051,0.013,0.217,0.169,0.178
		c-0.104,0.062-0.264,0.022-0.465,0.114c0.21,0.164,0.833-0.092,0.822,0.294c-0.132-0.147-0.233-0.046-0.357-0.114
		c-0.032,0.154,0.431,0.114,0.237,0.232c-0.02,0.188-0.197,0.055-0.351,0.057v0.357c0.041,0.114,0.153,0.156,0.295,0.176
		c0.02,0.097-0.049,0.106-0.118,0.114c0.12,0.066,0.169,0.022,0.352,0.117c-0.041-0.056-0.136-0.056-0.121-0.172
		c0.131,0.032,0.193,0.119,0.295,0.172c-0.039,0.058-0.132,0.062-0.118,0.178c0.051-0.015,0.306-0.12,0.118-0.178
		c0.052-0.158,0.204,0.058,0.296,0.058c-0.101,0.005-0.233,0.138-0.117,0.357c0.076-0.017,0.045-0.148,0.06-0.237
		c0.114,0.119,0.238,0.237,0.349,0.354c-0.172,0.468,0.196,2.047,0,2.82c-0.02,0.092-0.057,0.151-0.175,0.174
		c0.01,0.069,0.11,0.052,0.175,0.06c-0.064,0.206-0.212,0.332-0.349,0.471c-0.051-0.047-0.133-0.064-0.238-0.059
		c0.153-0.14-0.158-0.156,0-0.289c-0.183,0.025-0.254,0.166-0.471,0.175c-0.011-0.315-0.475-0.055-0.414,0.055
		c-0.146,0.02-0.288,0.02-0.231-0.173c-0.362,0.164-0.116,0.274-0.353,0.47c0.236,0.293,0.043,0.381,0.178,0.64
		c0.048-0.032,0.183-0.242,0.175,0c0.288-0.411,0.04-0.719,0.527-0.991c0.159,0.147,0.058,0.216,0.118,0.406
		c0.107-0.009,0.041-0.193,0.119-0.233c0.145,0.209,0.521,0.186,0.468,0.588c0.199-0.028,0.088-0.223,0.062-0.354
		c0.287-0.089,0.317-0.198,0.298-0.352c0.258,0.189,0.046,0.855,0.11,1.234c-0.156-0.142-0.167,0.222-0.349,0.237
		c0.073,0.078,0.2,0.112,0.349,0.117c0.026,0.126-0.082,0.114-0.175,0.114c0.396,0.06-0.014,0.638,0.175,0.649
		c0.051,0.188-0.188,0.082-0.234,0.178c0.017,0.243-0.114,0.36-0.174,0.47c0.037,0.077,0.153-0.029,0.298,0.06
		c-0.041,0.038-0.143,0.275-0.006,0.293c-0.257,0.195-0.645,0.25-0.766,0.582C262.479,117.923,262.294,117.705,262.151,117.416
		 M261.225,37.656c-0.004-0.007-0.004-0.007-0.009-0.007C261.221,37.649,261.221,37.652,261.225,37.656 M261.385,112.543
		c-0.004,0-0.021-0.144-0.056-0.007C261.247,112.875,261.388,112.751,261.385,112.543 M261.467,42.643
		c0-0.006-0.01-0.02-0.018-0.033c-0.086-0.137,0.146-0.223,0-0.239c-0.013,0.209-0.199-0.122-0.183,0.058
		C261.329,42.443,261.437,42.597,261.467,42.643 M260.683,115.472c0.114,0.087,0.198,0.201,0.232,0.357
		c0.143-0.035,0.301-0.05,0.292-0.232c-0.251-0.14,0.064-0.14,0-0.413c-0.237,0.036-0.374-0.245-0.704-0.12
		c0.08,0.147-0.172,0.247,0,0.302c0.045-0.285,0.449-0.193,0.588-0.064C260.861,115.269,260.79,115.381,260.683,115.472
		 M232.065,156.435c0.392,0,0.917,0.139,1.289-0.116C232.886,156.159,232.296,156.251,232.065,156.435 M189.222,155.847
		c0.102,0.032-0.029,0.064-0.059,0.122c0.131,0.027,0.415,0.205,0.525,0.057c-0.043-0.013-0.064-0.047-0.059-0.116
		c0.073-0.008,0.14-0.018,0.123-0.122C189.494,155.971,189.43,155.75,189.222,155.847 M186.809,155.381
		c-0.575-0.196-1.362-0.116-1.997-0.062c0.006,0.072,0.019,0.145,0.119,0.119C185.716,155.418,186.194,155.606,186.809,155.381
		 M176.113,12.282c-0.127-0.198,0.19-0.583-0.06-0.354c-0.108-0.145,0.086-0.366-0.118-0.232c0.079-0.195-0.027-0.251-0.057-0.354
		c0,0.079-0.102,0.057-0.116,0.119C176.052,11.68,175.879,12.066,176.113,12.282 M176.25,5.453
		c-0.009-0.006-0.048-0.016-0.134-0.046c0-0.085-0.027-0.131-0.062-0.175c-0.163,0.082-0.3-0.159-0.352,0
		c0.059,0.179,0.148,0.127,0.284,0.169C175.942,5.385,176.23,5.453,176.25,5.453 M176.005,10.573
		c0.268-0.088,0.151-0.315-0.005-0.462c0.106,0.261-0.055,0.147-0.174,0.057c0,0.147-0.324,0.26-0.182,0.351
		c0.092-0.251,0.209-0.116,0.355,0c0.062-0.214-0.223-0.09-0.174-0.288c0.087,0.136,0.24,0.057,0.29,0.114
		C176.01,10.35,176.078,10.531,176.005,10.573 M176.01,12.922c0.005,0,0.018-0.017,0.044-0.051c0.092-0.017,0.041-0.133,0-0.18
		c0.194,0.047,0.092-0.115,0-0.115c0.008,0.085-0.021,0.131-0.054,0.175C176.116,12.747,176.015,12.912,176.01,12.922
		 M174.706,69.286c0.21-0.011,0.234-0.192,0.234-0.411c-0.104,0.002-0.156-0.042-0.177-0.115c0-0.057,0.044-0.071,0.062-0.12h-0.182
		c0.052,0.165-0.08,0.153-0.058,0.294c0.104,0.023,0.151-0.09,0.178,0c0,0.076-0.101,0.051-0.12,0.113
		C174.849,69.001,174.75,69.236,174.706,69.286 M174.365,14.234c0.023-0.002,0.097-0.014,0.102-0.008
		c0.233,0.042,0.154-0.045-0.055,0C174.389,14.232,174.373,14.232,174.365,14.234"/>
	<path clip-path="url(#SVGID_2_)" fill="#AC3734" d="M262.265,108.836c0.034-0.171,0.094,0.089,0.182,0.062
		C262.383,109.09,262.327,108.832,262.265,108.836"/>
	<path clip-path="url(#SVGID_2_)" fill="#AC3734" d="M262.265,155.086c-0.062,0.173-0.19-0.075-0.171-0.177
		C262.225,154.89,262.161,155.076,262.265,155.086"/>
	<path clip-path="url(#SVGID_2_)" fill="#AC3734" d="M261.738,36.786c0.112-0.199,0.204,0.104,0.357,0.06
		C262.032,37.08,261.851,36.839,261.738,36.786"/>
	<path clip-path="url(#SVGID_2_)" fill="#AC3734" d="M261.621,41.198c0.021-0.199,0.312-0.064,0.298,0.119
		C261.799,41.292,261.767,41.187,261.621,41.198"/>
	<path clip-path="url(#SVGID_2_)" fill="#AC3734" d="M261.692,103.689c0.042-0.057,0.153,0.103,0.226,0.095
		c-0.06,0.166-0.146-0.032-0.221-0.06C261.697,103.715,261.694,103.7,261.692,103.689"/>
	<path clip-path="url(#SVGID_2_)" fill="#AC3734" d="M261.681,36.613C261.538,36.799,261.448,36.406,261.681,36.613"/>
	<path clip-path="url(#SVGID_2_)" fill="#AC3734" d="M260.972,117.535c-0.153,0.018-0.192-0.082-0.175-0.238
		C260.952,117.279,260.949,117.418,260.972,117.535"/>
	<path clip-path="url(#SVGID_2_)" fill="#AC3734" d="M256.685,155.146c0.122-0.092,0.308-0.124,0.526-0.119
		C257.187,155.252,256.846,155.21,256.685,155.146"/>
	<path clip-path="url(#SVGID_2_)" fill="#AC3734" d="M252.864,155.614c0.026,0.113-0.27,0.084-0.178-0.055
		C252.782,155.537,252.789,155.611,252.864,155.614"/>
	<path clip-path="url(#SVGID_2_)" fill="#AC3734" d="M251.219,155.614c0.477,0.166,0.891-0.188,1.292,0
		c-0.094,0.215-0.672-0.043-0.584,0.354c-0.379-0.035-0.476-0.32-0.885-0.182C251.056,155.679,251.235,155.753,251.219,155.614"/>
	<path clip-path="url(#SVGID_2_)" fill="#AC3734" d="M250.396,155.73c0.029-0.266,0.426-0.032,0.414,0.116
		C250.654,155.829,250.487,155.819,250.396,155.73"/>
	<path clip-path="url(#SVGID_2_)" fill="#AC3734" d="M244.288,155.971h0.171c-0.114,0.109-0.019,0.211,0,0.348
		C244.216,156.283,244.248,156.191,244.288,155.971"/>
	<path clip-path="url(#SVGID_2_)" fill="#AC3734" d="M243.812,156.435c0.092-0.144-0.198-0.174-0.171-0.055
		c0.033,0.003,0.062,0.01,0.055,0.055H243.812z M243.93,155.909c0.091,0.153-0.037,0.35,0.234,0.409
		c-0.1,0.136-0.389,0.082-0.353,0.356c-0.138-0.06-0.153-0.24-0.405-0.178c-0.004-0.214,0.304-0.188,0.056-0.355
		c0.1-0.057,0.182-0.193,0-0.232C243.613,155.847,243.669,156.112,243.93,155.909"/>
	<path clip-path="url(#SVGID_2_)" fill="#AC3734" d="M243.343,156.025c0.072,0.187,0.009,0.134,0,0.354
		c-0.263-0.007-0.565,0.021-0.586-0.238c0.197,0.04,0.216-0.097,0.231-0.232C243.095,155.961,243.143,156.075,243.343,156.025"/>
	<path clip-path="url(#SVGID_2_)" fill="#AC3734" d="M243.329,155.608l0.007,0.003C243.329,155.611,243.329,155.608,243.329,155.608
		"/>
	<path clip-path="url(#SVGID_2_)" fill="#AC3734" d="M239.64,156.435c-0.033,0.055-0.071,0.106,0,0.121
		c-0.088,0.114-0.663,0.248-0.646-0.059c0.134-0.043,0.459,0.099,0.414-0.117C239.526,156.353,239.566,156.417,239.64,156.435"/>
	<path clip-path="url(#SVGID_2_)" fill="#AC3734" d="M238.002,156.556c0.002-0.113,0.19,0.067,0.348,0
		c-0.104,0.172-0.348,0.196-0.646,0.177C237.474,156.608,238.303,156.752,238.002,156.556"/>
	<path clip-path="url(#SVGID_2_)" fill="#AC3734" d="M236.761,156.556c0.153,0.142,0.602-0.012,0.765,0.119
		c-0.254,0.137-0.765,0.021-1.118,0.058c0.143-0.137,0.336-0.209,0.057-0.353c0.078-0.179,0.211,0.062,0.36,0
		C236.776,156.489,236.646,156.417,236.761,156.556"/>
	<path clip-path="url(#SVGID_2_)" fill="#AC3734" d="M221.424,156.732c0.011-0.139,0.25-0.025,0.355-0.058
		C221.769,156.802,221.524,156.697,221.424,156.732"/>
	<path clip-path="url(#SVGID_2_)" fill="#AC3734" d="M221.483,156.025c0.082,0.187-0.487,0.187-0.411,0
		C221.174,156.025,221.413,155.869,221.483,156.025"/>
	<path clip-path="url(#SVGID_2_)" fill="#AC3734" d="M220.778,156.675c-0.081,0.129-0.41,0.021-0.592,0.058
		C220.133,156.663,220.653,156.583,220.778,156.675"/>
	<path clip-path="url(#SVGID_2_)" fill="#AC3734" d="M219.78,156.732c0.015-0.079,0.144-0.053,0.233-0.058
		C219.996,156.755,219.871,156.72,219.78,156.732"/>
	<path clip-path="url(#SVGID_2_)" fill="#AC3734" d="M215.376,156.556c0.359,0.164-0.359,0.256-0.476,0.119
		C215.043,156.481,215.303,156.789,215.376,156.556"/>
	<path clip-path="url(#SVGID_2_)" fill="#AC3734" d="M214.198,156.556c0.272,0.174-0.176,0.132-0.235,0
		c0.076-0.215,0.55-0.034,0.704-0.176c-0.067-0.134-0.369-0.022-0.531-0.062c0.006-0.08,0.011-0.159-0.054-0.177
		c0.4-0.171,0.778-0.092,1.051,0.119c0.008,0.09-0.35,0.085-0.052,0.119C214.81,156.489,214.544,156.68,214.198,156.556"/>
	<path clip-path="url(#SVGID_2_)" fill="#AC3734" d="M209.494,156.38c-0.119,0.119,0.027,0.117,0.119,0.176
		c-0.082,0.117-0.363,0.03-0.472,0.119c0.01-0.106-0.07-0.131-0.062-0.24C209.275,156.475,209.357,156.4,209.494,156.38"/>
	<path clip-path="url(#SVGID_2_)" fill="#AC3734" d="M207.085,156.675c0.249-0.052,0.515,0.075,0.123,0.058
		c-0.104,0.012-0.156-0.1-0.18,0C206.829,156.737,207.096,156.477,207.085,156.675"/>
	<path clip-path="url(#SVGID_2_)" fill="#AC3734" d="M201.502,156.675c-0.008-0.097,0.383-0.119,0.292,0.058
		C201.66,156.75,201.57,156.72,201.502,156.675"/>
	<path clip-path="url(#SVGID_2_)" fill="#AC3734" d="M188.577,156.675c-0.483-0.106-0.891,0.226-1.006-0.119
		C187.878,156.623,188.464,156.41,188.577,156.675"/>
	<path clip-path="url(#SVGID_2_)" fill="#AC3734" d="M178.407,156.732c0.147-0.069,0.229-0.209,0.472-0.177
		C178.844,156.732,178.638,156.75,178.407,156.732"/>
	<path clip-path="url(#SVGID_2_)" fill="#AC3734" d="M177.115,156.025c-0.019,0.084-0.148,0.052-0.239,0.057
		C176.895,155.948,177.035,155.948,177.115,156.025"/>
	<path clip-path="url(#SVGID_2_)" fill="#AC3734" d="M176.35,155.73c0.044-0.132,0.332-0.024,0.476-0.058
		C176.773,155.805,176.488,155.698,176.35,155.73"/>
	<path clip-path="url(#SVGID_2_)" fill="#AC3734" d="M176.582,156.082C176.455,156.261,176.208,156.018,176.582,156.082"/>
	<path clip-path="url(#SVGID_2_)" fill="#AC3734" d="M175.35,155.79c-0.044,0.092-0.283-0.01-0.235,0.179
		c-0.171,0-0.137-0.33-0.057-0.412c0.425,0.23,0.623-0.01,1.175,0.116c0.055,0.231-0.324,0.025-0.297,0.236
		c-0.011,0.153,0.089,0.193,0.239,0.173C175.859,156.259,175.472,156.013,175.35,155.79"/>
	<path clip-path="url(#SVGID_2_)" fill="#AC3734" d="M175.826,10.519c0.01,0.017,0.016,0.034,0.016,0.046
		C175.833,10.553,175.828,10.536,175.826,10.519"/>
	<path clip-path="url(#SVGID_2_)" fill="#AC3734" d="M175.704,12.458c0.085,0.014,0.231,0.385,0,0.357
		C175.837,12.61,175.579,12.622,175.704,12.458"/>
	<path clip-path="url(#SVGID_2_)" fill="#AC3734" d="M175.584,12.755c-0.073,0.076-0.112,0.172-0.234,0.06
		c0.014-0.069,0.062-0.034,0.062,0c0.06-0.06,0.119-0.113,0.172-0.179c0.068,0.012,0.034,0.055,0,0.055
		c0,0.125,0.161,0.079,0.12,0.237c-0.057,0.006-0.044,0.074-0.061,0.122c-0.088,0-0.194-0.161,0-0.122
		C175.612,12.882,175.584,12.835,175.584,12.755"/>
	<path clip-path="url(#SVGID_2_)" fill="#AC3734" d="M175.467,13.636c0.078,0.021,0.124,0.074,0.116,0.177
		C175.511,13.786,175.467,13.735,175.467,13.636"/>
	<path clip-path="url(#SVGID_2_)" fill="#AC3734" d="M175.405,13.512h-0.002c-0.21-0.119-0.329-0.329-0.522-0.462
		C174.99,13.036,175.308,13.314,175.405,13.512"/>
	<path clip-path="url(#SVGID_2_)" fill="#AC3734" d="M175.174,13.458c0.212,0.198-0.417-0.317-0.437-0.354
		c0.009,0.005,0.037,0.023,0.087,0.062C174.978,13.226,175.106,13.313,175.174,13.458"/>
	<path clip-path="url(#SVGID_2_)" fill="#AC3734" d="M175.114,8.461c-0.018,0.085-0.147,0.051-0.233,0.06
		C174.898,8.385,175.035,8.388,175.114,8.461"/>
	<path clip-path="url(#SVGID_2_)" fill="#AC3734" d="M174.764,9.465c0.073,0.021,0.117,0.074,0.117,0.173
		C174.807,9.613,174.76,9.562,174.764,9.465"/>
	<path clip-path="url(#SVGID_2_)" fill="#AC3734" d="M174.764,0.589c-0.009,0.148-0.2,0.017-0.232,0
		C174.581,0.392,174.663,0.539,174.764,0.589"/>
	<path clip-path="url(#SVGID_2_)" fill="#AC3734" d="M174.53,139.16c0.057,0.177-0.128,0.102-0.234,0.117v-0.117H174.53z"/>
	<path clip-path="url(#SVGID_2_)" fill="#AC3734" d="M174.061,13.458c0.112-0.145,0.227,0.198,0.409,0.178
		C174.355,13.787,174.19,13.49,174.061,13.458"/>
	<path clip-path="url(#SVGID_2_)" fill="#AC3734" d="M174.296,55.48c0.144,0.091,0,0.379-0.236,0.29
		C173.981,55.519,174.224,55.583,174.296,55.48"/>
	<path clip-path="url(#SVGID_2_)" fill="#AC3734" d="M174.236,52.247c-0.166-0.048-0.304-0.479,0.06-0.414
		C174.224,51.994,174.165,52.079,174.236,52.247"/>
	<path clip-path="url(#SVGID_2_)" fill="#AC3734" d="M174.117,45.78c0.179-0.06,0.106,0.127,0.119,0.235
		C174.135,45.999,174.101,45.913,174.117,45.78"/>
	<path clip-path="url(#SVGID_2_)" fill="#AC3734" d="M174.236,46.134C174.286,46.412,173.959,46.235,174.236,46.134"/>
	<path clip-path="url(#SVGID_2_)" fill="#AC3734" d="M174.236,81.39c-0.193,0.191-0.143-0.366-0.233-0.465
		C174.189,80.73,174.107,81.323,174.236,81.39"/>
	<path clip-path="url(#SVGID_2_)" fill="#AC3734" d="M173.941,55.299c-0.018-0.091,0.312-0.086,0.176,0.056
		C174.117,55.333,173.951,55.299,173.941,55.299"/>
	<path clip-path="url(#SVGID_2_)" fill="#AC3734" d="M173.941,55.004c-0.008-0.167-0.005-0.323,0.176-0.294
		C174.107,54.861,174.107,55.015,173.941,55.004"/>
	<path clip-path="url(#SVGID_2_)" fill="#AC3734" d="M174.061,54.537c0.153,0.161-0.427,0.19-0.181,0.467
		c-0.33-0.002-0.053-0.333-0.053-0.526c0.097-0.019,0.109,0.045,0.114,0.113C174.009,54.604,174.043,54.583,174.061,54.537"/>
	<path clip-path="url(#SVGID_2_)" fill="#AC3734" d="M174.003,48.249c0.302-0.035-0.203,0.249,0.058,0.352
		C173.933,48.855,173.867,48.249,174.003,48.249"/>
	<path clip-path="url(#SVGID_2_)" fill="#AC3734" d="M173.827,52.893c0.097-0.229,0.091,0.125,0.176,0.116
		C173.94,53.191,173.906,52.879,173.827,52.893"/>
	<path clip-path="url(#SVGID_2_)" fill="#AC3734" d="M173.941,49.189C174.197,49.212,173.88,49.529,173.941,49.189"/>
	<path clip-path="url(#SVGID_2_)" fill="#AC3734" d="M173.708,47.543c0.21-0.508,0.335,0.816,0.233,0.354
		c-0.091-0.085-0.256-0.214-0.114-0.354H173.708z"/>
	<path clip-path="url(#SVGID_2_)" fill="#AC3734" d="M173.646,53.125c0.053-0.166,0.188,0.034,0.295,0
		c-0.032,0.042-0.062,0.096-0.062,0.178c-0.062-0.011-0.045-0.107-0.053-0.178C173.745,53.197,173.73,53.151,173.646,53.125"/>
	<path clip-path="url(#SVGID_2_)" fill="#AC3734" d="M173.646,45.432c0.09-0.097,0.263-0.068,0.233,0.113
		c-0.053-0.022-0.103-0.051-0.114-0.113c-0.055,0.04-0.085,0.103-0.119,0.17c-0.161-0.057,0.09-0.153-0.056-0.233
		C173.621,45.279,173.646,45.366,173.646,45.432"/>
	<path clip-path="url(#SVGID_2_)" fill="#AC3734" d="M173.646,47.718c0.163,0.032-0.079,0.479,0.233,0.354
		c-0.02,0.213-0.186,0.277-0.289,0.408C173.477,48.323,173.5,47.81,173.646,47.718"/>
	<path clip-path="url(#SVGID_2_)" fill="#AC3734" d="M173.766,55.124c-0.005,0.107,0.071,0.125,0.062,0.235
		c-0.103,0.007-0.158-0.1-0.181,0c-0.091-0.021,0.055-0.102-0.058-0.117c-0.02-0.136,0.172-0.067,0.177-0.175
		C173.827,55.074,173.8,55.124,173.766,55.124"/>
	<path clip-path="url(#SVGID_2_)" fill="#AC3734" d="M173.827,46.837c-0.027,0.145-0.124-0.09-0.117-0.172
		C173.761,46.706,173.793,46.766,173.827,46.837"/>
	<path clip-path="url(#SVGID_2_)" fill="#AC3734" d="M173.766,23.569c0.144,0.184-0.11,0.468-0.177,0.642
		C173.448,24.02,173.698,23.741,173.766,23.569"/>
	<path clip-path="url(#SVGID_2_)" fill="#AC3734" d="M173.766,48.781c0.097-0.018,0.112,0.38-0.056,0.29
		C173.681,48.925,173.816,48.945,173.766,48.781"/>
	<path clip-path="url(#SVGID_2_)" fill="#AC3734" d="M173.766,18.981c0.011,0.051-0.021,0.056-0.056,0.059
		c0.288,0.14,0.028,0.055-0.063,0.236c-0.106-0.048-0.152-0.254-0.058-0.352C173.634,18.953,173.686,18.981,173.766,18.981"/>
	<path clip-path="url(#SVGID_2_)" fill="#AC3734" d="M173.646,51.538c0.181,0.099,0.064,0.216,0.062,0.412
		c-0.073-0.088-0.17-0.143-0.177-0.294C173.63,51.678,173.642,51.612,173.646,51.538"/>
	<path clip-path="url(#SVGID_2_)" fill="#AC3734" d="M173.589,16.868c0.103,0.014,0.137,0.102,0.119,0.235
		C173.529,17.162,173.604,16.972,173.589,16.868"/>
	<path clip-path="url(#SVGID_2_)" fill="#AC3734" d="M173.589,25.563c0.177-0.056,0.103,0.131,0.119,0.235h-0.179
		C173.505,25.677,173.569,25.641,173.589,25.563"/>
	<path clip-path="url(#SVGID_2_)" fill="#AC3734" d="M173.708,18.278c-0.203,0.039-0.216-0.207-0.117-0.294
		C173.681,18.03,173.674,18.17,173.708,18.278"/>
	<path clip-path="url(#SVGID_2_)" fill="#AC3734" d="M173.708,114.423c-0.052-0.014-0.062,0.02-0.062,0.057
		c-0.062-0.012-0.051-0.106-0.056-0.179C173.686,114.281,173.699,114.344,173.708,114.423"/>
	<path clip-path="url(#SVGID_2_)" fill="#AC3734" d="M173.708,124.234c-0.052-0.012-0.062,0.023-0.062,0.062
		c-0.062-0.014-0.051-0.107-0.056-0.18C173.686,124.099,173.699,124.161,173.708,124.234"/>
	<path clip-path="url(#SVGID_2_)" fill="#AC3734" d="M173.646,68.936c0.131,0.005,0.022,0.25,0.062,0.352
		c-0.049-0.105-0.151-0.159-0.177-0.296C173.596,69.002,173.635,68.977,173.646,68.936"/>
	<path clip-path="url(#SVGID_2_)" fill="#AC3734" d="M173.529,50.073c-0.144-0.382,0.293-0.645,0.06-0.301
		C173.609,49.893,173.584,50.388,173.529,50.073"/>
	<path clip-path="url(#SVGID_2_)" fill="#AC3734" d="M173.646,48.951c-0.051-0.005-0.056,0.022-0.056,0.062
		c-0.071-0.01-0.053-0.111-0.06-0.178C173.63,48.808,173.642,48.883,173.646,48.951"/>
	<path clip-path="url(#SVGID_2_)" fill="#AC3734" d="M173.529,54.709c0.124-0.028,0.114,0.085,0.117,0.179
		c-0.042-0.011-0.058-0.055-0.117-0.055V54.709z"/>
</g>
<polygon fill="#F1F1F2" points="199.806,53.689 199.806,89.81 211.256,89.81 211.256,95.336 193.765,95.336 193.765,53.689 "/>
<g>
	<defs>
		<rect id="SVGID_13_" x="173.5" width="90" height="156.77"/>
	</defs>
	<clipPath id="SVGID_4_">
		<use xlink:href="#SVGID_13_"  overflow="visible"/>
	</clipPath>
	<path clip-path="url(#SVGID_4_)" fill="#F1F1F2" d="M199.645,118.539h1.863c5.566,0,8.349-2.126,8.349-6.383
		c0-3.985-2.708-5.974-8.122-5.974h-2.09V118.539z M206.955,123l12.054,16.597h-7.185l-11.123-15.941h-1.057v15.941h-5.877v-38.939
		h6.884c5.146,0,8.86,0.969,11.146,2.901c2.524,2.152,3.783,4.992,3.783,8.525c0,2.758-0.791,5.125-2.37,7.11
		C211.631,121.179,209.546,122.445,206.955,123"/>
	<path clip-path="url(#SVGID_4_)" fill="#F1F1F2" d="M228.367,134.05h3.63c2.654,0,4.604-0.521,5.853-1.564
		c1.308-1.129,1.966-2.557,1.966-4.283c0-1.683-0.632-3.097-1.894-4.239c-1.226-1.129-3.419-1.689-6.583-1.689h-2.972V134.05z
		 M228.367,117.354h1.838c2.185,0,3.789-0.48,4.805-1.451c1.021-0.964,1.527-2.391,1.527-4.274c0-1.83-0.525-3.219-1.565-4.171
		c-1.042-0.952-2.555-1.426-4.541-1.426h-2.063V117.354z M222.49,139.577v-38.942h5.849c2.607,0,4.681,0.203,6.229,0.605
		c1.564,0.401,2.884,1.084,3.963,2.041c1.093,0.99,1.956,2.229,2.594,3.707c0.658,1.498,0.986,3.013,0.986,4.546
		c0,2.784-1.071,5.15-3.206,7.084c2.069,0.705,3.7,1.939,4.896,3.705c1.21,1.746,1.812,3.784,1.812,6.104
		c0,3.043-1.076,5.609-3.224,7.715c-1.299,1.297-2.75,2.192-4.364,2.695c-1.766,0.491-3.979,0.739-6.634,0.739H222.49z"/>
</g>
<path fill="#F1F1F2" d="M232.725,80.353l-5.775-13.243l-6.051,13.243H232.725z M235.12,85.875h-16.673l-4.338,9.46h-6.326
	l19.267-41.648l18.586,41.648h-6.434L235.12,85.875z"/>
</svg>
